<svg xmlns="http://www.w3.org/2000/svg" viewBox="0 0 254.5 254.73"><defs><style>.a{fill:#fefefe}.b{fill:#463922}.c{fill:#645c24}.d{fill:#556b2f}.e{fill:#bec14b}.f{fill:#88a140}.g{fill:#83792d}</style></defs><path class="a" d="M254.38 150.48c0 31.67-.15 63.35.12 95 0 6.38-.37 9.27-8.42 9.23q-118.78-.61-237.55 0c-7.87 0-8.62-2.57-8.52-9.14.36-24 .14-48 .14-72l11.36.32c.07 5.24 0 10.49.24 15.73.12 3.08-1 7.52 4.38 7 10.3-1.06 6 7.06 7.58 11.53q-3.48 14.72 11.24 11.23c8.1.15 16.31-.45 24.29.64 9.93 1.36 11.24-3.72 10.44-11.42l11.21-.81c9.38 2.41 13.11-1.43 11.89-10.75 3.57-2.06 11.25 3.3 11-4.73-.26-10.27 7.22-6.1 11.72-7.61 9.49 2.44 13.07-1.63 12-10.86l11.14-.71h11.58c8.05.15 16.17-.28 24.14.61 9.3 1 11.89-3.05 10.65-11.33l23-.85h11.67c4.06-.55 11.13 3.89 11.13-3.86 0-10.3 7.33-6.15 11.85-7.7zM.15 115.81C.15 80.28.29 44.75.03 9.23-.02 2.81.45 0 8.47 0Q127.3.62 246.12 0c8.19 0 8.39 3 8.36 9.29-.2 43.21-.1 86.42-.1 129.63l-11.42-.2.07.08q2.12-13.76-11.64-11.65l.09.09-.69-11.5v-11.37c2.35-9.58-1.85-13-11.05-11.83l-.06.23c1.57-9-2-13.2-11.31-11.93-1-4.76 2.45-12.38-7.49-11.35-2.8.29-4.51-1.42-4.22-4.23 1-9.94-6.59-6.49-11.36-7.48 1-8.92-2.16-13.4-11.77-10.83l-11.35-.76c1.06-9.21-2.63-13.15-12-10.83H92.49c-4 .65-11-3.94-11.1 3.94-.07 10.2-7.39 6.11-11.92 7.7-9.82-2.64-13 1.79-11.64 11l-11.35.56c-9.43-2.47-13 1.55-12 10.76q-13.25-1.81-11.59 11.47c-9.2-1-13.19 2.63-10.73 12v11.52c.98 9.05-2.54 13.4-12.01 11.5z"/><path class="b" d="M.15 115.81c9.47 1.9 13-2.45 12-11.48l10.84.24c.1 3.75.21 7.5.31 11.26s0 7.67 0 11.51c-1.41 9.11 2.46 12.91 11.59 11.47 8.92 1.43 12.84-2.22 11.47-11.26l11.41-.39c9.21 1.66 13-2.26 11.78-11.4h11.5c-1.52 9.07 2.61 12.77 11.43 12 .1 3.78.21 7.56.31 11.34v11.14l-.15 11.79H81c1.06-8.21-1.71-11.9-10.81-11.86-8.89 0-13.68 2.19-12.27 11.88l-11.33.15-11.79-.18c-.61-4.7 2.05-11.4-6.64-11.2a4.37 4.37 0 0 0-4.52 4.51c-.2 8.69 6.51 6 11.21 6.65v11.59c-4.71.6-11.42-2.06-11.23 6.64a4.36 4.36 0 0 0 4.52 4.51c8.7.2 6-6.51 6.63-11.22l11.4.24c.06 3.76-.11 7.53.25 11.26.41 4.24-2.08 10.57 5 11.13 8.56.67 5.78-6.48 6.48-11.07l11.72-.36 11.07.18c7.9 1.18 12.91-.82 11.93-10.23-.43-4.19-.09-8.45-.09-12.67l11.69-.11 11.43.05.27 11.88-.38 10.85c-4.5 1.52-12-2.65-11.72 7.62.21 8-7.47 2.67-11 4.73H81.29c-9.46-1.71-13.17 2.33-11.61 11.63.8 7.7-.51 12.78-10.44 11.42-8-1.09-16.19-.49-24.29-.64q1.86-13.1-11.24-11.23c-1.54-4.47 2.72-12.59-7.58-11.53-5.43.56-4.26-3.88-4.38-7-.2-5.24-.17-10.49-.24-15.73 1.61-9.11-2.08-13.17-11.36-11.88v-23.12c4.2-.69 10.56 2.05 11.08-5.08.62-8.48-6.45-5.83-11.08-6.47z"/><path class="c" d="M.15 127.37c4.63.64 11.7-2 11.08 6.47-.52 7.13-6.88 4.39-11.08 5.08z"/><path class="d" d="M242.96 138.72l11.42.2v11.56l-11.63-.48zM.15 162c9.28-1.29 13 2.77 11.36 11.88l-11.36-.32z"/><path class="b" d="M242.96 138.72l-.21 11.28c-4.52 1.55-11.86-2.6-11.85 7.7 0 7.75-7.07 3.31-11.13 3.86-.69-4.28 1.78-10.68-5.84-10.68s-5.15 6.4-5.83 10.68l-23 .85.11-1.11.06-11.12c9.18 1.93 13-1.62 11.11-10.93 1.65-9.35-2.1-13.34-11.56-11.64l-11.37-.18c-.05-3.8-.09-7.6-.14-11.4-1.15-9.17 3-13.07 12-12h11c9.26 1.74 13.05-2.22 11.83-11.37l11.55.13.06-.23c-1.43 8.71 1.47 13.38 11.05 11.83v11.37c-9.37-1.33-12.15 3.53-11.19 11.9l-5.7-.2c-5.58-.18-6 3.39-5.45 7.59.52 4 3.67 4.07 6.43 3.68 7.68-1.08 3.92-7.11 4.55-11.23l12.05-.24-.09-.09q-2.26 13.83 11.63 11.63z"/><path class="e" d="M185.07 162.41c1.24 8.28-1.35 12.37-10.65 11.33-8-.89-16.09-.46-24.14-.61 0-3.5.07-7 .11-10.49l34.79-1.34z"/><path class="d" d="M115.96 173.84l-.27-11.84-.1.07 23.47.25-.36 10.85-11.14.71z"/><path class="c" d="M208.1 161.56c.68-4.28-1.78-10.68 5.83-10.68s5.15 6.4 5.84 10.68z"/><path class="f" d="M138.7 173.13l.36-10.85 11.32-.88v1.24c0 3.5-.07 7-.11 10.49zM115.96 173.84h11.6c1.09 9.23-2.49 13.3-12 10.86.15-3.62.27-7.24.4-10.86z"/><path class="d" d="M69.68 208.58c-1.56-9.3 2.15-13.34 11.61-11.63l-.4 10.84z"/><path class="f" d="M80.89 207.79l.4-10.79 11.53.09c1.22 9.27-2.51 13.11-11.93 10.7zM23.71 208.13q13.11-1.87 11.24 11.23-14.73 3.5-11.24-11.23z"/><path class="d" d="M46.48 58.5l11.35-.56.17.13c.58 4.62-2.21 11.65 6.35 11.09 7.28-.47 4.42-6.8 5.07-11V46.94c4.53-1.55 11.85 2.54 11.92-7.63 0-7.88 7.07-3.29 11.1-3.94L92.61 58c0 3.79.11 7.59.16 11.38-8.76-.92-13.1 2.6-11.83 11.77l-11.53.07-23-.15-.07-11.58zM208.17 92.64c1.22 9.15-2.57 13.11-11.82 11.37-2.89-8.07 8.89-23.4-11.33-22.89 1.22-9.2-2.66-13-11.86-11.35l-11.21-.09V58.02l11.32-.35 12.08.06c4.77 1 12.39-2.46 11.36 7.48-.29 2.81 1.42 4.52 4.22 4.23 9.94-1 6.5 6.59 7.49 11.35z"/><path class="f" d="M92.61 58l-.12-22.61h34.88c1.24 9-3.09 12.23-11.55 11.24-9.41-1.69-12.8 2.73-11.78 11.61z"/><path class="d" d="M115.82 46.63c8.46 1 12.79-2.26 11.55-11.24h11.46l.06 11.32v11.27l-11.63.17-11.5-.15z"/><path class="f" d="M12.17 92.81c-2.46-9.39 1.53-13 10.73-12l.9.89c-.13 3.66-.25 7.33-.38 11zM208.17 92.64l.24-11.8c9.3-1.27 12.88 2.88 11.31 11.93z"/><path class="d" d="M12.17 92.81l11.25-.14-.16-.14.24 11.47-.49.62-10.83-.24c0-3.89-.01-7.73-.01-11.57z"/><path class="e" d="M230.83 104.37c-9.58 1.55-12.48-3.12-11.05-11.83 9.2-1.21 13.4 2.25 11.05 11.83z"/><path class="c" d="M138.89 46.71l-.09-11.31h11.41l-.09 11 .19-.1z"/><path class="e" d="M150.15 46.41l.09-11c9.35-2.32 13 1.62 12 10.83l-.73.73z"/><path class="c" d="M69.47 47v11.21l-11.42-.1-.17-.13C56.49 48.75 59.65 44.32 69.47 47z"/><path class="d" d="M219.6 127.65c-1-8.38 1.82-13.24 11.19-11.91l.69 11.5-12.05.24z"/><path class="d" d="M243.03 138.8q-13.89 2.2-11.64-11.65 13.76-2.15 11.64 11.65z"/><path class="e" d="M173.26 57.72l-11.32.35-.45-11.15.73-.73 11.35.76c-.1 3.59-.21 7.18-.31 10.77z"/><path class="f" d="M173.26 57.72c.1-3.59.21-7.18.31-10.77 9.61-2.57 12.74 1.91 11.77 10.83zM46.48 58.5c-.05 3.65-.11 7.31-.16 11l-11 .67-.87-.88C33.44 60.05 37.05 56 46.48 58.5z"/><path class="f" d="M22.89 80.79q-1.7-13.31 11.6-11.53l.87.88c-.27 3.6-.53 7.2-.8 10.8l-10.77.74z"/><path class="d" d="M57.89 162.09c-1.41-9.69 3.38-11.84 12.27-11.88 9.1 0 11.87 3.65 10.81 11.86l.08-.08c-8.7-1.16-12.93 2.26-11.63 11.35l.29.71-11.82-.51.1.1zM69.5 115.76c1.24 9.14-2.57 13.06-11.78 11.41.06-3.76.12-7.51.17-11.27s0-7.78 0-11.68l11.79.28c-.03 3.75-.11 7.5-.18 11.26zM81 162.07h11.61c0 4.22-.34 8.48.09 12.67 1 9.41-4 11.41-11.93 10.23.08-3.71.17-7.43.25-11.14q.06-5.9.1-11.79z"/><path class="d" d="M57.94 185.1c-.7 4.59 2.08 11.74-6.48 11.07-7.1-.56-4.61-6.89-5-11.13-.36-3.73-.19-7.5-.25-11.26l.39-.4 11.4.26-.1-.1z"/><path class="c" d="M23.33 115.83c-.1-3.76-.21-7.51-.31-11.26l.48-.61 11.22.42v11.44z"/><path class="f" d="M69.5 115.76c.07-3.75.15-7.51.23-11.26h11.06l.1 11.25H69.5z"/><path class="d" d="M23.33 115.83h11.42c0 3.85 0 7.69.08 11.54H23.41c-.05-3.87-.06-7.7-.08-11.54z"/><path class="f" d="M57.89 115.9c0 3.76-.11 7.51-.17 11.27l-11.41.38.2-.42q-.06-5.66-.13-11.32z"/><path class="g" d="M92.48 127.79c-8.82.73-13-3-11.43-12h-.16l11.9-.22-.26.41c0 3.67.1 7.33.14 11z"/><path class="c" d="M23.38 127.34H34.8v11.43c-9.04 1.48-12.91-2.32-11.42-11.43z"/><path class="d" d="M34.89 138.81v-11.43l11.68-.23-.2.42c1.31 9.02-2.61 12.67-11.48 11.24zM92.79 139.13c-.1-3.78-.21-7.56-.31-11.34l.21-.84c8.78-.72 12.93 3 11.52 12z"/><path class="f" d="M92.79 139.13l11.42-.15-.13-.12v11.58h.1l-11.38-.16z"/><path class="c" d="M34.89 162c-4.7-.61-11.41 2-11.21-6.65a4.37 4.37 0 0 1 4.52-4.51c8.69-.2 6 6.5 6.64 11.2zM92.76 150.27l11.38.16.12 11.48-11.69.09z"/><path class="g" d="M104.26 161.91l-.12-11.48h-.1l11.68.07c0 3.84-.09 7.68-.13 11.52l.1-.07z"/><path class="d" d="M34.89 173.61v-11.59h-.05l11.79.18v11.14l-.39.4-11.4-.24z"/><path class="f" d="M46.58 173.38v-11.14l11.31-.15.06 11.55z"/><path class="c" d="M34.79 173.54c-.59 4.71 2.07 11.42-6.63 11.22a4.36 4.36 0 0 1-4.52-4.51c-.19-8.7 6.52-6 11.23-6.64z"/><path class="f" d="M57.94 185.1l-.05-11.56 11.86.51c0 3.56 0 7.13-.08 10.69z"/><path class="e" d="M69.66 184.74c0-3.56 0-7.13.08-10.69l-.29-.71 11.53.44c-.08 3.71-.17 7.43-.25 11.14z"/><path class="d" d="M185.29 104c-9.06-1.05-13.16 2.85-12 12l-11.54-.53.14-22.82.1-11.65 11.21-.08 11.86.25zM185.18 161.3l-34.79 1.34v-1.24c.44-4.29-1.5-9.94 5.39-10.82 7.77-1 5.71-6.94 6.24-11.64l11.64-.14-.16.06c-1.33 9.25 2.71 13 11.82 11.52l-.07-.2z"/><path class="f" d="M185.29 104l-.27-22.89c20.22-.51 8.44 14.82 11.33 22.89zM161.74 115.49l11.54.53c.05 3.81.09 7.61.14 11.41l.12-.12-11.75.33-11.16-.51-.24-11.25zM173.42 127.43l11.37.18q.15 5.73.32 11.47l.11-.18h-11.73l.16-.06c0-3.83-.07-7.66-.11-11.49z"/><path class="d" d="M185.11 139.08l-.32-11.47c9.46-1.7 13.21 2.29 11.56 11.64z"/><path class="e" d="M219.43 127.48c-.63 4.12 3.13 10.15-4.55 11.23-2.76.39-5.91.28-6.43-3.68-.55-4.2-.13-7.77 5.45-7.59l5.7.2zM185.11 139.08l11.24.17c1.87 9.31-1.93 12.86-11.11 10.93l.07.2-.09-11.48z"/><path class="b" d="M150.63 127.13l11.16.51c.07 3.77.15 7.53.22 11.3-.53 4.7 1.53 10.65-6.24 11.64-6.89.88-4.95 6.53-5.39 10.82l-11.32.88-23.47-.28c0-3.84.09-7.68.13-11.52 9 1.25 12.85-2.57 11.56-11.57 9 1.26 12.88-2.58 11.5-11.61zM80.79 104.5H69.73l-11.79-.28h.05c1.14-9.13-2.67-13-11.87-11.3l-22.86-.41.16.14c.13-3.66.25-7.33.38-11L34.57 81l11.82.1 23 .15c-1.11 9 2.66 13 11.79 11.32H104.44l11.11.53c-.29 4.31 1.91 10.13-4.93 11-7.74 1-6.06 6.73-6.64 11.47l-11.41.44.26-.41c.86-9.07-3.06-12.85-12.04-11.1z"/><path class="g" d="M92.44 92.52H81.19c-.08-3.8-.17-7.59-.25-11.39-1.27-9.13 3.07-12.69 11.83-11.77l-.22.35.06 11.43z"/><path class="c" d="M80.94 81.13c.08 3.8.17 7.59.25 11.39-9.12 1.64-12.89-2.3-11.78-11.32z"/><path class="f" d="M58 58.07l11.42.1c-.65 4.19 2.21 10.52-5.07 11-8.56.55-5.77-6.48-6.35-11.1z"/><path class="b" d="M92.61 58l11.43.26-.08-.15c1.86 9.43-2.5 12.76-11.41 11.63l.22-.36c-.05-3.81-.11-7.61-.16-11.38z"/><path class="c" d="M46.39 81.05L34.57 81c.27-3.61.53-7.21.8-10.81l11-.67c-.03 3.81 0 7.67.02 11.53z"/><path class="f" d="M161.49 46.92l.45 11.15v11.66l.13-.13c-8.95 1.29-13.14-2.28-11.75-11.53V46.31l-.19.1z"/><path class="e" d="M173.2 80.92l-11.21.08.13.13V69.6l-.13.13 11.21.09z"/><path class="g" d="M173.2 80.92v-11.1c9.2-1.7 13.08 2.15 11.86 11.35zM115.82 46.63L115.76 58l-.14.14h-11.67l.09.15c-1.02-8.93 2.37-13.35 11.78-11.66z"/><path class="e" d="M150.34 46.31v11.76l-11.54-.22.13.13V46.71z"/><path class="g" d="M115.76 58l11.57.16v11.32l-11.44.37-.31-11.72z"/><path class="f" d="M127.35 69.46V58.14l11.61-.14-.13-.13q0 5.82-.05 11.64l-11.59.2zM23.26 92.53l22.86.41.33 11.32-.18-.06-11.55.18L23.5 104z"/><path class="b" d="M80.98 173.78l-11.53-.44c-1.3-9.09 2.93-12.51 11.63-11.35q-.04 5.9-.1 11.79z"/><path class="c" d="M57.89 115.9l-11.51-.09c0-3.87-.07-7.74-.11-11.61l.18.06h11.54-.05c-.05 3.86-.05 7.74-.05 11.64z"/><path class="g" d="M46.27 104.2c0 3.87.07 7.74.11 11.61s.09 7.55.13 11.32l-11.68.23c0-3.85 0-7.69-.08-11.54v-11.44z"/><path class="d" d="M80.79 104.5c9-1.75 12.9 2 12 11l-11.9.22z"/><path class="f" d="M92.55 115.94l11.41-.44 11.68.33.33 11.4q-.18 5.82-.37 11.65h-11.52l.13.12c1.41-9-2.74-12.75-11.52-12-.04-3.73-.09-7.39-.14-11.06z"/><path class="d" d="M104.08 138.86h23.17c1.29 9-2.6 12.82-11.56 11.57l-11.68-.07c.04-3.78.06-7.64.07-11.5z"/><path class="b" d="M161.74 115.49l-11.35.39q1.94-13.57-11.64-11.64c.13-3.79.25-7.59.37-11.38l11.5-.36 11.3.15z"/><path class="f" d="M161.89 92.65l-11.3-.15-.12-11.3 11.62-.07-.1-.13c-.02 3.88-.05 7.77-.1 11.65z"/><path class="c" d="M162.01 138.94c-.07-3.77-.15-7.53-.22-11.3l11.75-.33c0 3.83.07 7.66.11 11.49z"/><path class="b" d="M185.22 138.9l.09 11.48c-9.11 1.46-13.15-2.27-11.82-11.52z"/><path class="d" d="M138.75 104.24q13.59-2 11.64 11.64l.24 11.25-11.85.2.08.08c.82-7.86-1.43-12.71-10.63-11.67-4.15.47-8.39.08-12.59.09l-11.68-.33c.58-4.74-1.1-10.46 6.64-11.47 6.84-.89 4.64-6.71 4.93-11 5 0 10.77-2.07 11.9 6 .99 7.18 7.01 4.6 11.32 5.21z"/><path class="d" d="M138.78 127.33c1.38 9-2.48 12.87-11.5 11.61v-11.46h11.58z"/><path class="f" d="M138.75 104.24c-4.31-.61-10.33 2-11.32-5.19-1.13-8.11-6.92-6-11.9-6l-11.11-.53c1-8.88-2.89-12.74-11.81-11.34l-.06-11.43c8.91 1.14 13.27-2.19 11.41-11.62h11.66q.15 5.87.31 11.73c-1.72 9.21 2.13 12.77 11.2 11l11.65.34h-.06q.19 5.84.4 11.67z"/><path class="c" d="M92.61 81.14c8.92-1.4 12.78 2.46 11.81 11.34h-12c.08-3.76.13-7.55.19-11.34z"/><path class="d" d="M57.99 104.24H46.45l-.33-11.32c9.2-1.72 13.01 2.19 11.87 11.32zM162.12 81.13l-11.62.07h-11.78.06V69.47l.06-11.64 11.54.22c-1.39 9.25 2.8 12.82 11.75 11.53z"/><path class="b" d="M127.13 80.89c-9.07 1.73-12.92-1.83-11.2-11l11.42-.39-.16.23z"/><path class="c" d="M127.13 80.89l.06-11.2 11.59-.2v11.73z"/><path class="b" d="M138.89 127.41h-11.58L116 127.2l-.33-11.4c4.2 0 8.44.38 12.59-.09 9.17-1.01 11.42 3.84 10.63 11.7z"/><path class="c" d="M115.97 127.23l11.31.21v11.47h-11.64zM138.72 81.19h11.78l.12 11.3-11.5.36q-.23-5.85-.4-11.66z"/></svg>