<svg version="1.1" id="svg160" xmlns="http://www.w3.org/2000/svg" viewBox="0 0 270 270"><defs id="defs4"><style id="style2">.b{fill:#463922}.c{fill:#645c24}.d{fill:#556b2f}.e{fill:#bec14b}.f{fill:#88a140}.g{fill:#83792d}</style></defs><path id="path8-3" style="fill:#463922;stroke:#fffff8;stroke-width:12;stroke-linecap:round;stroke-linejoin:round;stroke-miterlimit:4;stroke-dasharray:none;stroke-opacity:1;paint-order:stroke fill markers" class="b" d="M93.113 42.177c-2.271-.081-4.039.742-4.039 4.682-.07 10.17-7.39 6.079-11.92 7.629v.047c-9.778-2.65-12.926 1.78-11.539 10.992l-.05-.04-11.35.561-.14 10.99v.032l-10.972.668c-.27 3.6-.528 7.2-.798 10.81l11.82.051c-.015-2.895-.037-5.79-.033-8.664l.053 8.684 22.998.15c-1.102 9.004 2.668 12.937 11.78 11.299h11.25v-.04h11.981c.01-.093.017-.182.026-.275-.011.107-.014.206-.026.315l11.11.53-.002.048-11.088-.528h-23.26c-9.13 1.68-12.899-2.32-11.789-11.32l-23-.15-11.82-.1-7.35.444 7.34-.504c.27-3.591.528-7.181.797-10.772l10.963-.668c.05-3.69.11-7.35.16-11-9.418-2.497-13.03 1.54-12.033 10.754-8.836-1.168-12.688 2.677-11.557 11.535l.898.89h.01v.018l-.898-.886c-9.2-1-13.19 2.61-10.73 12 0 3.823.009 7.647.01 11.52h-.03c1 9.03-2.53 13.38-12 11.48v11.558c.579.08 1.195.11 1.83.116.635.005 1.29-.013 1.941-.026-.652.013-1.306.031-1.941.026a14.481 14.481 0 0 1-1.83-.116v11.551a10.907 10.907 0 0 1 1.66-.123 36.371 36.371 0 0 1 0 0c-.577.005-1.135.037-1.66.123v34.64l11.36.321a23.09 23.09 0 0 0 .349-3.055 23.203 23.203 0 0 1-.35 3.094c.07 5.24.04 10.49.24 15.73.12 3.12-1.049 7.56 4.381 7 10.284-1.058 6.055 7.034 7.574 11.508-2.312 9.8 1.434 13.533 11.245 11.202a21.58 21.58 0 0 0 .232-2.99c0 .935-.077 1.949-.232 3.04 8.1.15 16.29-.449 24.29.641 9.93 1.36 11.24-3.72 10.44-11.42-.028-.17-.043-.326-.068-.492.022.147.043.292.068.441l11.211-.79.396-10.79h11.534c3.53-2.06 11.21 3.27 11-4.73-.28-10.27 7.218-6.1 11.718-7.62l.381-10.849-.265-11.729h.037l-.002-.072 23.37.28-.001.04-23.367-.248.27 11.768c-.13 3.62-.251 7.24-.401 10.86 9.496 2.436 13.078-1.618 12.004-10.819l11.135-.71.002-.04h11.568l.014-1.092c-.001.364-.004.728-.004 1.092 8.05.15 16.14-.28 24.14.61 9.3 1.04 11.89-3.05 10.65-11.33l.11-1.11.068-10.91.02-.002-.057 10.912-.111 1.11 23-.85c.042-.268.073-.545.094-.827.067-.893.045-1.847.033-2.798.012.951.034 1.905-.033 2.798-.022.282-.052.56-.094.827h11.67a10.061 10.061 0 0 1-.096-.827 16.124 16.124 0 0 1-.04-.86c-.016-.638-.002-1.295.005-1.95-.008.655-.02 1.311-.006 1.95.007.291.02.578.041.86.022.282.053.56.096.827 4.06-.55 11.13 3.888 11.13-3.862-.01-10.3 7.33-6.149 11.85-7.699l11.631.48v-11.56l-11.34-.197c1.375-9.115-2.48-12.976-11.566-11.584l-.684-11.381a.02.02 0 0 1 .01.002v-11.37c-.292.048-.558.07-.838.106.283-.036.572-.079.868-.127 2.35-9.58-1.851-13.04-11.051-11.83-1.296 7.894.966 12.47 8.531 12.106a21.116 21.116 0 0 0 0 0c-7.506.367-9.81-4.11-8.59-11.875.008-.048.012-.091.02-.139l.01-.07c1.475-8.898-2.112-12.977-11.332-11.721l.002-.05c-.99-4.76 2.45-12.35-7.49-11.35-2.8.29-4.51-1.419-4.22-4.229 1.03-9.94-6.59-6.48-11.36-7.48h-.007c.953-8.887-2.181-13.347-11.773-10.782l-11.326-.757c.981-9.175-2.67-13.098-12.004-10.782l-.09 10.897-.031.002v.01l-11.19.392V65.38h-.039V54.26l11.229-.403.092-10.908h-11.381v-.01h-46.34l.119 22.61 11.367.237c0 .007.003.013.004.02l-11.371-.258-.17-22.63c-2.015.324-4.79-.66-7.06-.74zm-4.09 162.371-.398 10.79c9.42 2.41 13.15-1.43 11.93-10.7zm30.555-150.72c.237-.006.479-.006.727 0 .495.011 1.013.047 1.554.105a24.361 24.361 0 0 1 0 0 18.669 18.669 0 0 0-1.554-.106c-.496-.011-.97 0-1.42.034-.45.034-.88.09-1.285.17-4.062.79-5.93 3.811-5.998 8.67.06-4.854 1.927-7.88 5.998-8.67.406-.08.834-.136 1.285-.17.225-.017.457-.028.693-.034zm10.102.15c-1.506.378-3.294.464-5.344.281 2.05.181 3.838.095 5.344-.281zm-18.078 8.736a21.627 21.627 0 0 0 0 0zm.05 1.711a27.831 27.831 0 0 0 0 0zm34.912 1.104v.021h.01l-.058 11.25c.031-3.75.048-7.5.049-11.25l-8.141.098zm-23.07.02 11.5.15.09-.002v11.312l-.025.04-11.395.39c-.019.1-.033.194-.05.293.018-.11.029-.212.05-.324v-.012l11.4-.367v-11.32Zm-57.76.07c.073.577.092 1.192.088 1.826-.004.633-.031 1.283-.054 1.933.023-.65.05-1.3.054-1.933a14.078 14.078 0 0 0-.088-1.826zm103.94 0h.01v11.529l-.01.002zm-92.526.14h.002a10.767 10.767 0 0 1-.002 0zm-.1 1.615a36.013 36.013 0 0 0 0 0zm35.048 2.955-.008.116.008-.116zm-.047.553a10.903 10.903 0 0 1 0 0zm-.069.537a9.717 9.717 0 0 1 0 0zm-.095.518a8.599 8.599 0 0 1 0 0zm-.145.582a7.756 7.756 0 0 1 0 0zm-.172.527c-.92 2.523-3.002 3.907-6.072 4.32 3.072-.412 5.147-1.802 6.072-4.32zM100.49 76.93h.014l-.219.36c.26.032.514.06.766.085-.256-.026-.502-.042-.766-.076v-.039zm83.606.025c2.478-.09 4.43.362 5.867 1.348-2.007-1.359-5.01-1.676-9.03-.933l-11.068-.088v-.051l11.03.088a22.986 22.986 0 0 1 3.2-.364zm-78.676.422a14.85 14.85 0 0 1 0 0zm-4.27.008a24.833 24.833 0 0 0 0 0zm2.897.104a19.228 19.228 0 0 1 0 0zm19.39 1.386c-.014.108-.028.215-.04.32.012-.105.027-.213.04-.32zm-.152 1.657c0 .027-.005.056-.006.084l.006-.084zm-34.783 6.5.008.084-.008-.084zm.158 1.529c.005.04.008.079.014.119h-.002c-.006-.041-.007-.078-.012-.12zm57.795.207h.002c.113 3.864.244 7.74.397 11.63l11.47-.359v.01l-11.47.36v-.01c-.14-3.874-.273-7.75-.399-11.631zm-34.621 5.006a10.464 10.464 0 0 1 0 0zm.33 1.619a13.721 13.721 0 0 1 0 0zm.11 1.193a17.242 17.242 0 0 1 0 0zm.015 1.424a21.383 21.383 0 0 1 0 0zm92.518.713c-.253 2.503-.865 5.185-1.108 7.684a20.088 20.088 0 0 0 0 0c.242-2.498.854-5.18 1.108-7.684zm-173.647 1.34 22.693.406v.02l-22.693-.407v-.02zm184.744.127 11.526.129-.006.02-11.518-.13-.002-.02zm-153.033 1.22c1.717 1.17 2.697 3.109 2.969 5.797-.275-2.684-1.256-4.624-2.969-5.796zm60.482 5.012c-.005.082-.012.163-.019.244.006-.08.015-.162.02-.244zm80.245 1.824a12.062 12.062 0 0 0 0 0zm.113 1.756a7.982 7.982 0 0 0 0 0zm9.398.62c-.279.193-.58.364-.898.517-1.961.939-4.673 1.096-8.166.44h-11c-9-1.07-13.15 2.83-12 12 .05 3.761.087 7.523.137 11.285h-.03c-.049-3.762-.089-7.524-.138-11.295l-11.54-.53.045-5.656-.035 5.637 11.54.53c-1.16-9.15 2.94-13.05 12-12h11.058c0 .002 0 .006.002.01 3.469.652 6.17.503 8.127-.42.32-.152.618-.326.898-.518zm-64.084.939a17.646 17.646 0 0 0 0 0zm-1.27.082a25.24 25.24 0 0 0 0 0zm-93.751.105c.04 3.87.111 7.742.111 11.612-.04-3.87-.111-7.742-.111-11.612zm11.723.024 11.738.277c-.08 3.733-.16 7.476-.23 11.21.07-3.744.15-7.477.179-11.21zm-11.543.017h11.441v.02H54.184Zm-11.729.141h.03v11.45c.08 3.846.08 7.682.08 11.529l11.68-.229-.01.022-11.61.228v11.43c-1.972.311-3.685.362-5.166.184 1.456.165 3.148.09 5.076-.225v-11.4h.03v-.01c-.08-3.847-.08-7.683-.08-11.53h-11.42c.02 3.83.03 7.65.08 11.51h-.03c-.509 3.112-.393 5.605.342 7.479-.755-1.878-.905-4.359-.422-7.479 0-3.84.1-7.75 0-11.51-.1-3.743-.209-7.477-.308-11.21h.017l.01-.014c.1 3.738.21 7.476.31 11.224l11.391-.01zm23.184 4.178c.01 2.488.018 4.966-.014 7.342 0-2.456.001-4.903.014-7.342zm34.662 1.21c.01.042.017.086.027.128l-.027-.127zm.174.919c.23 1.416.266 3.045.09 4.912l-.214.338-.062.002.234-.37-11.742.217.004-.027h-11.5c.968 7.252-1.232 11.205-6.777 11.705 5.514-.523 7.707-4.474 6.726-11.705v-.01h11.39v-.03l11.9-.22c.181-1.82.164-3.423-.05-4.812zm57.89 2.109a19.943 19.943 0 0 1 0 0zm-.058 1.447a25.289 25.289 0 0 1 0 0zm-69.526 1.545h.004l-.027.172c.01-.059.013-.112.023-.172zm34.594.041h.03l.33 11.37 11.31.21h11.48l.01.07h-11.521v-.04l-11.309-.21-.328 11.63h-.043c.126-3.88.251-7.756.371-11.63zm-23.09.117c.05 3.65.099 7.295.139 11.004l-.21.834.19-.804c-.04-3.67-.14-7.33-.14-11zm138.826 11.295c0 .007 0 .013-.002.02l-11.779.234-.002-.02zm-41.865.01c.043.002.083.007.125.01l-.125-.01zm1.182.127a10.348 10.348 0 0 1 0 0zm-17.155.053h.002c.04 3.771.109 7.543.11 11.314-.04-3.771-.11-7.543-.112-11.314zm-167.757.031.183.008-.183-.008zm42.15.033-1.553.055v-.002zm-41.262.026.198.021a8.921 8.921 0 0 0-.198-.021zm185.198.115a8.207 8.207 0 0 1 0 0zm-184.35.006a7.384 7.384 0 0 1 0 0zm211.892.012h.016c-.272 2.154.56 4.788.344 6.97.22-2.178-.624-4.815-.36-6.97zm-211.07.199a5.292 5.292 0 0 1 0 0zm184.52.144a6.748 6.748 0 0 1 0 0zm-183.705.207a4.119 4.119 0 0 1 0 0zm184.6.278a5.97 5.97 0 0 1 0 0zm-183.915.207.049.047-.049-.047zm129.12.1c.006.077.015.155.02.232-.005-.077-.013-.155-.02-.233zm-92.446.05c.012.118.031.244.041.36.329 3.91-.51 6.63-2.459 8.222 1.936-1.595 2.766-4.325 2.459-8.223-.01-.115-.03-.242-.041-.359zm147.984.219a5.732 5.732 0 0 1 0 0zm-184.103.263.03.041-.03-.04zm184.7.366c1.63 1.993 2.06 5.181 1.286 9.562 1.007 4.962.375 8.27-1.808 10.002a5.45 5.45 0 0 1 0 0c2.163-1.737 2.77-5.056 1.777-10.002.77-4.369.363-7.568-1.256-9.562zm-184.27.443.01.022-.01-.022zm93.453 3.307a11.568 11.568 0 0 1 0 0zm.15 1.13a14.548 14.548 0 0 1 0 0zm115.34.077a5.443 5.443 0 0 1 0 0zm-195.996.29a7.021 7.021 0 0 0 0 0zm195.863.473a4.145 4.145 0 0 1 0 0zm-115.154.426a20.638 20.638 0 0 1-.25 3.026h-.008a20.84 20.84 0 0 0 .258-3.026zm114.894.31a3.57 3.57 0 0 1 0 0zm-194.959.003a6.096 6.096 0 0 0 0 0zm184.348.199c.99 2.664 3.703 2.706 6.117 2.365a10.03 10.03 0 0 0 1.871-.43 6.102 6.102 0 0 0 0 0 9.671 9.671 0 0 1-1.861.45c-2.423.342-5.146.328-6.127-2.385zm10.203.469a3.643 3.643 0 0 1 0 0zm14.21.174.028.027-.029-.027zm-208.063.008.06.06-.06-.06zm193.31.382a4.414 4.414 0 0 1 0 0zm-174.377.084a6.18 6.18 0 0 1 0 0zm189.885.164c.026.02.053.037.08.055l-.08-.055zm-190.775.43a6.953 6.953 0 0 1 0 0zm191.689.117.082.04-.082-.04zm-208.021.034.039.017-.04-.017zm15.2.35a8.348 8.348 0 0 1 0 0zm193.852.032.106.034-.106-.034zm-208.08.004c.06.02.12.037.18.055-.06-.018-.12-.035-.18-.055zm145.854.211v.035l-.053.02h-.098zm-144.81.055a11.115 11.115 0 0 0-.001 0zm11.986.021a11.668 11.668 0 0 1 0 0zm196.207.002.126.024-.126-.024zm-109.778.028h.024v.03h.004c1.277 8.977-2.573 12.789-11.563 11.54v.02l-11.58-.07h-.06v-.071l11.609.07c8.943 1.248 12.834-2.556 11.566-11.52zm34.754.03h.01c-.015.13-.02.264-.031.396.01-.131.007-.268.021-.397zm-57.93.01v.032l-11.29.148.011 11.14h-.012v-11.142zm57.852 1.393c-.103 3.495.496 7.315-2.746 9.198a6.614 6.614 0 0 1 0 0c3.234-1.883 2.643-5.703 2.746-9.198zm15.254 9.457c.032.016.065.03.097.045l-.097-.045zm16.455.051a6.315 6.315 0 0 1 0 0zm-123.451.319c9.081-.04 11.858 3.636 10.816 11.81-.008 0-.017 0-.025-.002 1.026-8.143-1.756-11.767-10.82-11.767-5.546.025-9.495.872-11.34 3.857 1.831-3.034 5.792-3.899 11.369-3.899zm108.002.025c.063.02.127.038.191.057-.064-.02-.128-.037-.191-.057zm14.35.096a7.892 7.892 0 0 1 0 0zm-35.551.07c-.377.086-.774.162-1.211.219-3.576.456-4.767 2.201-5.153 4.37.387-2.166 1.57-3.914 5.143-4.37a12.1 12.1 0 0 0 1.22-.22zm22.22.09a10.905 10.905 0 0 0 0 0zm12.092.115a10.087 10.087 0 0 1 0 0zm-7.445.006-.354.033c.117-.01.235-.02.354-.033zm-3.334.06a14.033 14.033 0 0 0 0 0zm1.9.04a16.839 16.839 0 0 1 0 0zm-154.263.148c.282-.007.521.014.78.022a15.23 15.23 0 0 0-.741-.002 4.37 4.37 0 0 0-.258.033 4.37 4.37 0 0 1 .219-.053zm.859.023a11.482 11.482 0 0 1 0 0zm1.54.153a7.866 7.866 0 0 1 0 0zm-4.298.285a4.37 4.37 0 0 0-.586.289 4.37 4.37 0 0 1 .586-.29zm5.572.06c.048.02.102.033.149.053-.047-.02-.1-.034-.149-.052zm178.809.149-.043.021.043-.021zm6.576 0 .043.021-.043-.021zm.707.435a3.271 3.271 0 0 1 0 0zm-8.002.008-.045.036.045-.036zm8.57.534a3.528 3.528 0 0 1 0 0zm-9.128.002c-.018.02-.034.041-.051.062l.05-.062zm-184.952.36a4.37 4.37 0 0 0-.32.648 4.37 4.37 0 0 1 .32-.649zm194.493.243c.029.053.055.107.082.16-.027-.053-.053-.107-.082-.16zm-9.963.02c-.022.039-.04.079-.06.119.02-.04.038-.08.06-.12zm-.295.666c-.023.065-.044.132-.065.199.021-.067.042-.134.065-.2zm10.564.004a3.708 3.708 0 0 1 0 0zm-10.77.732a7.53 7.53 0 0 0 0 0zm10.977.01a7.423 7.423 0 0 1 0 0zm-195.687.455a4.37 4.37 0 0 0-.053.39c-.056 2.434.435 3.976 1.273 4.95a3.805 3.805 0 0 0 0 0c-.855-.97-1.369-2.498-1.312-4.969a4.37 4.37 0 0 1 .092-.37zm195.81.293a11.117 11.117 0 0 1 0 0zm-11.234.082a6.505 6.505 0 0 0 0 0zm11.3.692a17.751 17.751 0 0 1 0 0zm-69.116.048c-.12 1.738.071 3.636-.102 5.327v1.24l-.023 1.742c.003-.58.013-1.161.013-1.742v-1.24c.174-1.692-.009-3.588.112-5.327zm57.751.09-.01.283c.003-.094.005-.189.01-.283zM33.404 168.49a4.41 4.41 0 0 0 0 0zm51.047.884c-.073.006-.144.015-.217.022.073-.007.144-.016.217-.022zm-74.443.022a22.587 22.587 0 0 0 0 0zm31.568.07c.117.005.232.014.348.022a13.954 13.954 0 0 0-.348-.022zm41.733.055a11.18 11.18 0 0 0 0 0zm40.078.028h.035l-.035.026zm-80.787.02h.025v11.482l11.35.238.35-.359h.009l-.389.398c.06 3.76-.11 7.53.25 11.26.166 1.802-.184 3.979-.101 5.932-.093-1.967.236-4.153.06-5.97-.36-3.73-.19-7.5-.25-11.26l-11.279-.239-.041-.002V169.58zm46.214.01h11.45v.04h-11.41c-.027 3.917-.06 7.838-.1 11.76-.08 3.683-.169 7.376-.248 11.059l-.041-.004c.08-3.698.17-7.407.25-11.105.04-3.9.073-7.803.1-11.71h.038v-.03l-.039.01v-.02zm-23.193.021.004.04.1 11.452-.041-.002-.059-11.45-11.26.15v-.041zm16.62.16a9.084 9.084 0 0 0 0 0zm-1.085.38a7.456 7.456 0 0 0 0 0zm-.902.468a6.521 6.521 0 0 0 0 0zm-.69.49a6.09 6.09 0 0 0-.671.633c-1.712 1.882-2.319 4.897-1.71 9.158l.292.711-.03-.002-.29-.709c-.612-4.273.015-7.278 1.738-9.158a6.18 6.18 0 0 1 .671-.633zM42.5 181.123c-.002.015 0 .031-.002.047-4.704.587-11.312-2.007-11.123 6.628a4.36 4.36 0 0 0 .004.065 4.36 4.36 0 0 1-.026-.104c-.188-8.65 6.441-6.076 11.147-6.636zm-10.59 8.918a4.36 4.36 0 0 0 .006.013 4.36 4.36 0 0 1-.006-.013zm22.22 9.09a6.92 6.92 0 0 1 0 0zm.354 1.654a4.66 4.66 0 0 0 0 0zm.436.883c.01.014.017.03.027.044-.01-.014-.017-.03-.027-.044zm22.158 11.23.008.17-.008-.17zm.09 1.367c.019.196.042.396.066.598-.024-.201-.048-.402-.066-.598z"/><path class="b" d="M7.884 123.358c9.47 1.9 13-2.45 12-11.48l10.84.24c.1 3.75.21 7.5.31 11.26s0 7.67 0 11.51c-1.41 9.11 2.46 12.91 11.59 11.47 8.92 1.43 12.84-2.22 11.47-11.26l11.41-.39c9.21 1.66 13-2.26 11.78-11.4h11.5c-1.52 9.07 2.61 12.77 11.43 12 .1 3.78.21 7.56.31 11.34v11.14l-.15 11.79h-11.64c1.06-8.21-1.71-11.9-10.81-11.86-8.89 0-13.68 2.19-12.27 11.88l-11.33.15-11.79-.18c-.61-4.7 2.05-11.4-6.64-11.2a4.37 4.37 0 0 0-4.52 4.51c-.2 8.69 6.51 6 11.21 6.65v11.59c-4.71.6-11.42-2.06-11.23 6.64a4.36 4.36 0 0 0 4.52 4.51c8.7.2 6-6.51 6.63-11.22l11.4.24c.06 3.76-.11 7.53.25 11.26.41 4.24-2.08 10.57 5 11.13 8.56.67 5.78-6.48 6.48-11.07l11.72-.36 11.07.18c7.9 1.18 12.91-.82 11.93-10.23-.43-4.19-.09-8.45-.09-12.67l11.69-.11 11.43.05.27 11.88-.38 10.85c-4.5 1.52-12-2.65-11.72 7.62.21 8-7.47 2.67-11 4.73h-11.53c-9.46-1.71-13.17 2.33-11.61 11.63.8 7.7-.51 12.78-10.44 11.42-8-1.09-16.19-.49-24.29-.64q1.86-13.1-11.24-11.23c-1.54-4.47 2.72-12.59-7.58-11.53-5.43.56-4.26-3.88-4.38-7-.2-5.24-.17-10.49-.24-15.73 1.61-9.11-2.08-13.17-11.36-11.88v-23.12c4.2-.69 10.56 2.05 11.08-5.08.62-8.48-6.45-5.83-11.08-6.47z" id="path8"/><path class="c" d="M7.884 134.918c4.63.64 11.7-2 11.08 6.47-.52 7.13-6.88 4.39-11.08 5.08z" id="path10"/><path class="d" d="m250.694 146.268 11.42.2v11.56l-11.63-.48zm-242.81 23.28c9.28-1.29 13 2.77 11.36 11.88l-11.36-.32z" id="path12"/><path class="b" d="m250.694 146.268-.21 11.28c-4.52 1.55-11.86-2.6-11.85 7.7 0 7.75-7.07 3.31-11.13 3.86-.69-4.28 1.78-10.68-5.84-10.68s-5.15 6.4-5.83 10.68l-23 .85.11-1.11.06-11.12c9.18 1.93 13-1.62 11.11-10.93 1.65-9.35-2.1-13.34-11.56-11.64l-11.37-.18c-.05-3.8-.09-7.6-.14-11.4-1.15-9.17 3-13.07 12-12h11c9.26 1.74 13.05-2.22 11.83-11.37l11.55.13.06-.23c-1.43 8.71 1.47 13.38 11.05 11.83v11.37c-9.37-1.33-12.15 3.53-11.19 11.9l-5.7-.2c-5.58-.18-6 3.39-5.45 7.59.52 4 3.67 4.07 6.43 3.68 7.68-1.08 3.92-7.11 4.55-11.23l12.05-.24-.09-.09q-2.26 13.83 11.63 11.63z" id="path14"/><path class="e" d="M192.804 169.958c1.24 8.28-1.35 12.37-10.65 11.33-8-.89-16.09-.46-24.14-.61 0-3.5.07-7 .11-10.49l34.79-1.34z" id="path16"/><path class="d" d="m123.694 181.388-.27-11.84-.1.07 23.47.25-.36 10.85-11.14.71z" id="path18"/><path class="c" d="M215.834 169.108c.68-4.28-1.78-10.68 5.83-10.68s5.15 6.4 5.84 10.68z" id="path20"/><path class="f" d="m146.434 180.678.36-10.85 11.32-.88v1.24c0 3.5-.07 7-.11 10.49zm-22.74.71h11.6c1.09 9.23-2.49 13.3-12 10.86.15-3.62.27-7.24.4-10.86z" id="path22"/><path class="d" d="M77.414 216.128c-1.56-9.3 2.15-13.34 11.61-11.63l-.4 10.84z" id="path24"/><path class="f" d="m88.624 215.338.4-10.79 11.53.09c1.22 9.27-2.51 13.11-11.93 10.7zm-57.18.34q13.11-1.87 11.24 11.23-14.73 3.5-11.24-11.23z" id="path26"/><path class="d" d="m54.214 66.048 11.35-.56.17.13c.58 4.62-2.21 11.65 6.35 11.09 7.28-.47 4.42-6.8 5.07-11v-11.22c4.53-1.55 11.85 2.54 11.92-7.63 0-7.88 7.07-3.29 11.1-3.94l.17 22.63c0 3.79.11 7.59.16 11.38-8.76-.92-13.1 2.6-11.83 11.77l-11.53.07-23-.15-.07-11.58zm161.69 34.14c1.22 9.15-2.57 13.11-11.82 11.37-2.89-8.07 8.89-23.4-11.33-22.89 1.22-9.2-2.66-13-11.86-11.35l-11.21-.09v-11.66l11.32-.35 12.08.06c4.77 1 12.39-2.46 11.36 7.48-.29 2.81 1.42 4.52 4.22 4.23 9.94-1 6.5 6.59 7.49 11.35z" id="path28"/><path class="f" d="m100.344 65.548-.12-22.61h34.88c1.24 9-3.09 12.23-11.55 11.24-9.41-1.69-12.8 2.73-11.78 11.61z" id="path30"/><path class="d" d="M123.554 54.178c8.46 1 12.79-2.26 11.55-11.24h11.46l.06 11.32v11.27l-11.63.17-11.5-.15z" id="path32"/><path class="f" d="M19.904 100.358c-2.46-9.39 1.53-13 10.73-12l.9.89c-.13 3.66-.25 7.33-.38 11zm196-.17.24-11.8c9.3-1.27 12.88 2.88 11.31 11.93z" id="path34"/><path class="d" d="m19.904 100.358 11.25-.14-.16-.14.24 11.47-.49.62-10.83-.24c0-3.89-.01-7.73-.01-11.57z" id="path36"/><path class="e" d="M238.564 111.918c-9.58 1.55-12.48-3.12-11.05-11.83 9.2-1.21 13.4 2.25 11.05 11.83z" id="path38"/><path class="c" d="m146.624 54.258-.09-11.31h11.41l-.09 11 .19-.1z" id="path40"/><path class="e" d="m157.884 53.958.09-11c9.35-2.32 13 1.62 12 10.83l-.73.73z" id="path42"/><path class="c" d="M77.204 54.548v11.21l-11.42-.1-.17-.13c-1.39-9.23 1.77-13.66 11.59-10.98z" id="path44"/><path class="d" d="M227.334 135.198c-1-8.38 1.82-13.24 11.19-11.91l.69 11.5-12.05.24z" id="path46"/><path class="d" d="M250.764 146.348q-13.89 2.2-11.64-11.65 13.76-2.15 11.64 11.65z" id="path48"/><path class="e" d="m180.994 65.268-11.32.35-.45-11.15.73-.73 11.35.76c-.1 3.59-.21 7.18-.31 10.77z" id="path50"/><path class="f" d="M180.994 65.268c.1-3.59.21-7.18.31-10.77 9.61-2.57 12.74 1.91 11.77 10.83zm-126.78.78c-.05 3.65-.11 7.31-.16 11l-11 .67-.87-.88c-1.01-9.24 2.6-13.29 12.03-10.79z" id="path52"/><path class="f" d="M30.624 88.338q-1.7-13.31 11.6-11.53l.87.88c-.27 3.6-.53 7.2-.8 10.8l-10.77.74z" id="path54"/><path class="d" d="M65.624 169.638c-1.41-9.69 3.38-11.84 12.27-11.88 9.1 0 11.87 3.65 10.81 11.86l.08-.08c-8.7-1.16-12.93 2.26-11.63 11.35l.29.71-11.82-.51.1.1zm11.61-46.33c1.24 9.14-2.57 13.06-11.78 11.41.06-3.76.12-7.51.17-11.27.05-3.76 0-7.78 0-11.68l11.79.28c-.03 3.75-.11 7.5-.18 11.26zm11.5 46.31h11.61c0 4.22-.34 8.48.09 12.67 1 9.41-4 11.41-11.93 10.23.08-3.71.17-7.43.25-11.14q.06-5.9.1-11.79z" id="path56"/><path class="d" d="M65.674 192.648c-.7 4.59 2.08 11.74-6.48 11.07-7.1-.56-4.61-6.89-5-11.13-.36-3.73-.19-7.5-.25-11.26l.39-.4 11.4.26-.1-.1z" id="path58"/><path class="c" d="M31.064 123.378c-.1-3.76-.21-7.51-.31-11.26l.48-.61 11.22.42v11.44z" id="path60"/><path class="f" d="M77.234 123.308c.07-3.75.15-7.51.23-11.26h11.06l.1 11.25h-11.39z" id="path62"/><path class="d" d="M31.064 123.378h11.42c0 3.85 0 7.69.08 11.54h-11.42c-.05-3.87-.06-7.7-.08-11.54z" id="path64"/><path class="f" d="M65.624 123.448c0 3.76-.11 7.51-.17 11.27l-11.41.38.2-.42q-.06-5.66-.13-11.32z" id="path66"/><path class="g" d="M100.214 135.338c-8.82.73-13-3-11.43-12h-.16l11.9-.22-.26.41c0 3.67.1 7.33.14 11z" id="path68"/><path class="c" d="M31.114 134.888h11.42v11.43c-9.04 1.48-12.91-2.32-11.42-11.43z" id="path70"/><path class="d" d="M42.624 146.358v-11.43l11.68-.23-.2.42c1.31 9.02-2.61 12.67-11.48 11.24zm57.9.32c-.1-3.78-.21-7.56-.31-11.34l.21-.84c8.78-.72 12.93 3 11.52 12z" id="path72"/><path class="f" d="m100.524 146.678 11.42-.15-.13-.12v11.58h.1l-11.38-.16z" id="path74"/><path class="c" d="M42.624 169.548c-4.7-.61-11.41 2-11.21-6.65a4.37 4.37 0 0 1 4.52-4.51c8.69-.2 6 6.5 6.64 11.2zm57.87-11.73 11.38.16.12 11.48-11.69.09z" id="path76"/><path class="g" d="m111.994 169.458-.12-11.48h-.1l11.68.07c0 3.84-.09 7.68-.13 11.52l.1-.07z" id="path78"/><path class="d" d="M42.624 181.158v-11.59h-.05l11.79.18v11.14l-.39.4-11.4-.24z" id="path80"/><path class="f" d="M54.314 180.928v-11.14l11.31-.15.06 11.55z" id="path82"/><path class="c" d="M42.524 181.088c-.59 4.71 2.07 11.42-6.63 11.22a4.36 4.36 0 0 1-4.52-4.51c-.19-8.7 6.52-6 11.23-6.64z" id="path84"/><path class="f" d="m65.674 192.648-.05-11.56 11.86.51c0 3.56 0 7.13-.08 10.69z" id="path86"/><path class="e" d="M77.394 192.288c0-3.56 0-7.13.08-10.69l-.29-.71 11.53.44c-.08 3.71-.17 7.43-.25 11.14z" id="path88"/><path class="d" d="M193.024 111.548c-9.06-1.05-13.16 2.85-12 12l-11.54-.53.14-22.82.1-11.65 11.21-.08 11.86.25zm-.11 57.3-34.79 1.34v-1.24c.44-4.29-1.5-9.94 5.39-10.82 7.77-1 5.71-6.94 6.24-11.64l11.64-.14-.16.06c-1.33 9.25 2.71 13 11.82 11.52l-.07-.2z" id="path90"/><path class="f" d="m193.024 111.548-.27-22.89c20.22-.51 8.44 14.82 11.33 22.89zm-23.55 11.49 11.54.53c.05 3.81.09 7.61.14 11.41l.12-.12-11.75.33-11.16-.51-.24-11.25zm11.68 11.94 11.37.18q.15 5.73.32 11.47l.11-.18h-11.73l.16-.06c0-3.83-.07-7.66-.11-11.49z" id="path92"/><path class="d" d="m192.844 146.628-.32-11.47c9.46-1.7 13.21 2.29 11.56 11.64z" id="path94"/><path class="e" d="M227.164 135.028c-.63 4.12 3.13 10.15-4.55 11.23-2.76.39-5.91.28-6.43-3.68-.55-4.2-.13-7.77 5.45-7.59l5.7.2zm-34.32 11.6 11.24.17c1.87 9.31-1.93 12.86-11.11 10.93l.07.2-.09-11.48z" id="path96"/><path class="b" d="m158.364 134.678 11.16.51c.07 3.77.15 7.53.22 11.3-.53 4.7 1.53 10.65-6.24 11.64-6.89.88-4.95 6.53-5.39 10.82l-11.32.88-23.47-.28c0-3.84.09-7.68.13-11.52 9 1.25 12.85-2.57 11.56-11.57 9 1.26 12.88-2.58 11.5-11.61zm-69.84-22.63h-11.06l-11.79-.28h.05c1.14-9.13-2.67-13-11.87-11.3l-22.86-.41.16.14c.13-3.66.25-7.33.38-11l10.77-.65 11.82.1 23 .15c-1.11 9 2.66 13 11.79 11.32h23.26l11.11.53c-.29 4.31 1.91 10.13-4.93 11-7.74 1-6.06 6.73-6.64 11.47l-11.41.44.26-.41c.86-9.07-3.06-12.85-12.04-11.1z" id="path98"/><path class="g" d="M100.174 100.068h-11.25c-.08-3.8-.17-7.59-.25-11.39-1.27-9.13 3.07-12.69 11.83-11.77l-.22.35.06 11.43z" id="path100"/><path class="c" d="M88.674 88.678c.08 3.8.17 7.59.25 11.39-9.12 1.64-12.89-2.3-11.78-11.32z" id="path102"/><path class="f" d="m65.734 65.618 11.42.1c-.65 4.19 2.21 10.52-5.07 11-8.56.55-5.77-6.48-6.35-11.1z" id="path104"/><path class="b" d="m100.344 65.548 11.43.26-.08-.15c1.86 9.43-2.5 12.76-11.41 11.63l.22-.36c-.05-3.81-.11-7.61-.16-11.38z" id="path106"/><path class="c" d="m54.124 88.598-11.82-.05c.27-3.61.53-7.21.8-10.81l11-.67c-.03 3.81 0 7.67.02 11.53z" id="path108"/><path class="f" d="m169.224 54.468.45 11.15v11.66l.13-.13c-8.95 1.29-13.14-2.28-11.75-11.53v-11.76l-.19.1z" id="path110"/><path class="e" d="m180.934 88.468-11.21.08.13.13v-11.53l-.13.13 11.21.09z" id="path112"/><path class="g" d="M180.934 88.468v-11.1c9.2-1.7 13.08 2.15 11.86 11.35zm-57.38-34.29-.06 11.37-.14.14h-11.67l.09.15c-1.02-8.93 2.37-13.35 11.78-11.66z" id="path114"/><path class="e" d="M158.074 53.858v11.76l-11.54-.22.13.13v-11.27z" id="path116"/><path class="g" d="m123.494 65.548 11.57.16v11.32l-11.44.37-.31-11.72z" id="path118"/><path class="f" d="M135.084 77.008v-11.32l11.61-.14-.13-.13q0 5.82-.05 11.64l-11.59.2zm-104.09 23.07 22.86.41.33 11.32-.18-.06-11.55.18-11.22-.38z" id="path120"/><path class="b" d="m88.714 181.328-11.53-.44c-1.3-9.09 2.93-12.51 11.63-11.35q-.04 5.9-.1 11.79z" id="path122"/><path class="c" d="m65.624 123.448-11.51-.09c0-3.87-.07-7.74-.11-11.61l.18.06h11.54-.05c-.05 3.86-.05 7.74-.05 11.64z" id="path124"/><path class="g" d="M54.004 111.748c0 3.87.07 7.74.11 11.61.04 3.87.09 7.55.13 11.32l-11.68.23c0-3.85 0-7.69-.08-11.54v-11.44z" id="path126"/><path class="d" d="M88.524 112.048c9-1.75 12.9 2 12 11l-11.9.22z" id="path128"/><path class="f" d="m100.284 123.488 11.41-.44 11.68.33.33 11.4q-.18 5.82-.37 11.65h-11.52l.13.12c1.41-9-2.74-12.75-11.52-12-.04-3.73-.09-7.39-.14-11.06z" id="path130"/><path class="d" d="M111.814 146.408h23.17c1.29 9-2.6 12.82-11.56 11.57l-11.68-.07c.04-3.78.06-7.64.07-11.5z" id="path132"/><path class="b" d="m169.474 123.038-11.35.39q1.94-13.57-11.64-11.64c.13-3.79.25-7.59.37-11.38l11.5-.36 11.3.15z" id="path134"/><path class="f" d="m169.624 100.198-11.3-.15-.12-11.3 11.62-.07-.1-.13c-.02 3.88-.05 7.77-.1 11.65z" id="path136"/><path class="c" d="M169.744 146.488c-.07-3.77-.15-7.53-.22-11.3l11.75-.33c0 3.83.07 7.66.11 11.49z" id="path138"/><path class="b" d="m192.954 146.448.09 11.48c-9.11 1.46-13.15-2.27-11.82-11.52z" id="path140"/><path class="d" d="M146.484 111.788q13.59-2 11.64 11.64l.24 11.25-11.85.2.08.08c.82-7.86-1.43-12.71-10.63-11.67-4.15.47-8.39.08-12.59.09l-11.68-.33c.58-4.74-1.1-10.46 6.64-11.47 6.84-.89 4.64-6.71 4.93-11 5 0 10.77-2.07 11.9 6 .99 7.18 7.01 4.6 11.32 5.21z" id="path142"/><path class="d" d="M146.514 134.878c1.38 9-2.48 12.87-11.5 11.61v-11.46h11.58z" id="path144"/><path class="f" d="M146.484 111.788c-4.31-.61-10.33 2-11.32-5.19-1.13-8.11-6.92-6-11.9-6l-11.11-.53c1-8.88-2.89-12.74-11.81-11.34l-.06-11.43c8.91 1.14 13.27-2.19 11.41-11.62h11.66q.15 5.87.31 11.73c-1.72 9.21 2.13 12.77 11.2 11l11.65.34h-.06q.19 5.84.4 11.67z" id="path146"/><path class="c" d="M100.344 88.688c8.92-1.4 12.78 2.46 11.81 11.34h-12c.08-3.76.13-7.55.19-11.34z" id="path148"/><path class="d" d="M65.724 111.788h-11.54l-.33-11.32c9.2-1.72 13.01 2.19 11.87 11.32zm104.13-23.11-11.62.07h-11.78.06v-11.73l.06-11.64 11.54.22c-1.39 9.25 2.8 12.82 11.75 11.53z" id="path150"/><path class="b" d="M134.864 88.438c-9.07 1.73-12.92-1.83-11.2-11l11.42-.39-.16.23z" id="path152"/><path class="c" d="m134.864 88.438.06-11.2 11.59-.2v11.73z" id="path154"/><path class="b" d="M146.624 134.958h-11.58l-11.31-.21-.33-11.4c4.2 0 8.44.38 12.59-.09 9.17-1.01 11.42 3.84 10.63 11.7z" id="path156"/><path class="c" d="m123.704 134.778 11.31.21v11.47h-11.64zm22.75-46.04h11.78l.12 11.3-11.5.36q-.23-5.85-.4-11.66z" id="path158"/></svg>