<svg xmlns="http://www.w3.org/2000/svg" xmlns:xlink="http://www.w3.org/1999/xlink" viewBox="0 0 52 52"><defs><linearGradient id="a"><stop style="stop-color:#00f;stop-opacity:1" offset="0"/><stop style="stop-color:#0ff;stop-opacity:1" offset="1"/></linearGradient><linearGradient xlink:href="#a" id="b" x1="43.926" y1=".552" x2="6.846" y2="35.559" gradientUnits="userSpaceOnUse"/></defs><g style="opacity:1;fill:none;fill-opacity:1;fill-rule:evenodd;stroke:#000;stroke-width:1.5;stroke-linecap:round;stroke-linejoin:round;stroke-miterlimit:4;stroke-dasharray:none;stroke-opacity:1"><path style="fill:url(#b);stroke:#004;fill-opacity:1;opacity:1;stroke-opacity:1" d="M21 7c-1.72 1.008-2.5 3-2.5 3h-2s-2-3.5-3-2.5c0 1-.23 2.006.5 3-.11 1.6-2 3.5-2 3.5S6 24 6 26c-.003 5 3 4 4 4 1.19-.77 0-2 1-2 1.41-.04-1.042 2.06 0 3 2.18.34 2-2 5-4 1.83-1.218 5.602-4.016 7.234-6.566C23.834 32.239 15 30.54 15 39h23c.5-21-5.5-28-16-29 0 0 0-3-1-3z"/><path d="M9.5 25.5a.5.5 0 1 1-1 0 .5.5 0 1 1 1 0z" style="fill:#76faff;stroke:#9dfbff;stroke-opacity:1;fill-opacity:1"/><path d="M15 15.5a.5 1.5 0 1 1-1 0 .5 1.5 0 1 1 1 0z" transform="rotate(30 14.5 15.5)" style="fill:#fff;stroke:#9dfbff;fill-opacity:1;stroke-opacity:1"/><path d="m24.55 10.4-.45 1.45.5.15c3.15 1 5.65 2.49 7.9 6.75S35.75 29.06 35.25 39l-.05.5h2.25l.05-.5c.5-10.06-.88-16.85-3.25-21.34-2.37-4.49-5.79-6.64-9.19-7.16l-.51-.1z" style="fill:#10007e;stroke:none;fill-opacity:1" stroke="none"/></g></svg>