<svg xmlns:xlink="http://www.w3.org/1999/xlink" xmlns="http://www.w3.org/2000/svg" viewBox="0 0 46 46"><defs><linearGradient id="a"><stop style="stop-color:#00f;stop-opacity:1" offset="0"/><stop style="stop-color:#0ff;stop-opacity:1" offset="1"/></linearGradient><linearGradient xlink:href="#a" id="b" x1="43.926" y1=".552" x2="6.846" y2="35.559" gradientUnits="userSpaceOnUse" gradientTransform="translate(-3.015 -4)"/></defs><path style="fill:#fff;fill-opacity:1;fill-rule:evenodd;stroke:#fff;stroke-width:3.5;stroke-linecap:round;stroke-linejoin:round;stroke-miterlimit:4;stroke-dasharray:none;stroke-opacity:.979578" d="M17.985 3c-1.72 1.008-2.5 3-2.5 3h-2s-2-3.5-3-2.5c0 1-.23 2.006.5 3-.11 1.6-2 3.5-2 3.5s-6 10-6 12c-.003 5 3 4 4 4 1.19-.77 0-2 1-2 1.41-.04-1.042 2.06 0 3 2.18.34 2-2 5-4 1.83-1.218 5.602-4.016 7.234-6.566.6 11.805-8.234 10.106-8.234 18.566h23c.5-21-5.5-28-16-29 0 0 0-3-1-3z"/><path style="fill:url(#b);fill-opacity:1;fill-rule:evenodd;stroke:#004;stroke-width:1.5;stroke-linecap:round;stroke-linejoin:round;stroke-miterlimit:4;stroke-dasharray:none;stroke-opacity:1" d="M17.985 3c-1.72 1.008-2.5 3-2.5 3h-2s-2-3.5-3-2.5c0 1-.23 2.006.5 3-.11 1.6-2 3.5-2 3.5s-6 10-6 12c-.003 5 3 4 4 4 1.19-.77 0-2 1-2 1.41-.04-1.042 2.06 0 3 2.18.34 2-2 5-4 1.83-1.218 5.602-4.016 7.234-6.566.6 11.805-8.234 10.106-8.234 18.566h23c.5-21-5.5-28-16-29 0 0 0-3-1-3z"/><path d="M6.485 21.5a.5.5 0 1 1-1 0 .5.5 0 1 1 1 0z" style="fill:#76faff;fill-opacity:1;fill-rule:evenodd;stroke:#9dfbff;stroke-width:1.5;stroke-linecap:round;stroke-linejoin:round;stroke-miterlimit:4;stroke-dasharray:none;stroke-opacity:1"/><path d="M11.918 11.75a.5 1.5 30 1 1-.866-.5.5 1.5 30 1 1 .866.5z" style="fill:#fff;fill-opacity:1;fill-rule:evenodd;stroke:#9dfbff;stroke-width:1.5;stroke-linecap:round;stroke-linejoin:round;stroke-miterlimit:4;stroke-dasharray:none;stroke-opacity:1"/><path d="m21.535 6.4-.45 1.45.5.15c3.15 1 5.65 2.49 7.9 6.75s3.25 10.31 2.75 20.25l-.05.5h2.25l.05-.5c.5-10.06-.88-16.85-3.25-21.34-2.37-4.49-5.79-6.64-9.19-7.16z" style="fill:#10007e;fill-opacity:1;fill-rule:evenodd;stroke:none;stroke-width:1.5;stroke-linecap:round;stroke-linejoin:round;stroke-miterlimit:4;stroke-dasharray:none;stroke-opacity:1"/></svg>