<svg viewBox="0 0 512 512" xmlns="http://www.w3.org/2000/svg"><path style="fill:#6e4a7e;fill-opacity:1;stroke:#fffff8;stroke-width:10;stroke-linecap:butt;stroke-linejoin:miter;stroke-opacity:1;stroke-miterlimit:4;stroke-dasharray:none" d="M314.459 27.314c-20.675.074-41.812 2.67-62.887 7.692a299.452 299.452 0 0 0-10.531 2.713 310.61 310.61 0 0 0-.016.006c-17.527 4.856-34.95 11.386-51.966 19.537l-8.057-15.81a7.999 7.999 0 0 0-4.666-3.987 7.993 7.993 0 0 0-6.117.482 7.987 7.987 0 0 0-3.985 4.666 8 8 0 0 0 .483 6.117l8.056 15.813a322.247 322.247 0 0 0-19.343 11.346 320.175 320.175 0 0 0-.051.029 315.689 315.689 0 0 0-9.283 6.123c-2.416 1.655-4.777 3.364-7.131 5.076-36.249 26.37-65.127 59.394-83.358 96.006-25.351 50.91-27.24 102.64-5.318 145.664a8.02 8.02 0 0 0 8.174 4.313 8.02 8.02 0 0 0 .844-.393 314.07 314.07 0 0 0 .047.133c.505-.127 1.025-.218 1.488-.436a8.032 8.032 0 0 0 1.275-1.01 8.02 8.02 0 0 0 .99-.783 8.032 8.032 0 0 0 2.16-3.765c1.56-7.198 4.713-13.41 9.165-18.23a33.115 33.115 0 0 1 3.85-3.5c.356-.283.717-.557 1.085-.825a33.115 33.115 0 0 1 4.416-2.766 33.227 33.227 0 0 1 4.856-1.953c.418-.135.838-.262 1.261-.38a33.227 33.227 0 0 1 5.116-1.065c6.517-.768 13.397.332 20.136 3.3a8.019 8.019 0 0 0 3.297.038l.15.584c.968-.027 1.936-.172 2.848-.549a8.056 8.056 0 0 0 2.66-1.797 8.014 8.014 0 0 0 1.747-2.697c3.269-8.384 8.81-16.136 15.933-22.516a67.63 67.63 0 0 1 9.305-6.974c.038-.024.08-.045.119-.069a67.63 67.63 0 0 1 10.303-5.24 67.666 67.666 0 0 1 11.066-3.408c7.479-1.61 15.072-1.885 22.268-.762 1.798.28 3.573.649 5.314 1.106a8.016 8.016 0 0 0 5.025-.315 8.016 8.016 0 0 0 3.844-3.25c9.006-14.689 24.424-28.8 42.951-39.504l17.6 34.541 108.711 213.358c9.5 18.643 32.394 26.081 51.037 16.582 18.644-9.5 26.083-32.394 16.584-51.037l-9.705-19.047a8.017 8.017 0 0 0-14.287 7.279l9.705 19.047c5.486 10.766 1.189 23.987-9.576 29.473-10.765 5.485-23.986 1.189-29.47-9.577l-126.311-247.9a151.133 151.133 0 0 1 7.365-3.049c17.251-6.608 34.81-9.66 49.842-8.48a8.015 8.015 0 0 0 8.095-5.08 53.421 53.421 0 0 1 2.229-4.95 56.75 56.75 0 0 1 2.74-4.76c3.981-6.207 9.24-11.82 15.422-16.462a67.876 67.876 0 0 1 6.53-4.268c.561-.328 1.128-.65 1.7-.963a67.876 67.876 0 0 1 6.967-3.361l.113-.047a67.645 67.645 0 0 1 11.026-3.394c7.478-1.61 15.072-1.885 22.267-.762 1.8.28 3.574.65 5.315 1.105a8.052 8.052 0 0 0 6.226-.922 8.014 8.014 0 0 0 3.641-5.134c1.871-8.637 6.039-15.856 11.99-20.955a33.086 33.086 0 0 1 6.528-4.368 33.228 33.228 0 0 1 4.855-1.953 33.08 33.08 0 0 1 1.262-.38 33.228 33.228 0 0 1 5.115-1.065c6.518-.768 13.397.334 20.137 3.303a8.015 8.015 0 0 0 4.392.474 8.016 8.016 0 0 0 1.278-.426 8.015 8.015 0 0 0 2.699-1.496 8.016 8.016 0 0 0 .687-.382 8.003 8.003 0 0 0 .881-1.282 8.015 8.015 0 0 0 .336-.486 8.003 8.003 0 0 0 .19-.275 8.027 8.027 0 0 0 .77-3.245 8.015 8.015 0 0 0 .003-.107 8.027 8.027 0 0 0-.863-3.752 137.886 137.886 0 0 0-20.262-29.53 141.28 141.28 0 0 0 0-.001 141.28 141.28 0 0 0-6.213-6.496 144.304 144.304 0 0 0-6.646-6.125 150.63 150.63 0 0 0-14.553-11.11 158.707 158.707 0 0 0-7.88-4.966 168.92 168.92 0 0 0-16.923-8.721 180.785 180.785 0 0 0-9.013-3.74c-12.258-4.704-25.459-8.274-39.48-10.627a232.943 232.943 0 0 0-20.079-2.471c-3.385-.27-6.785-.468-10.203-.596a250.892 250.892 0 0 0-10.297-.174zm-20.777 19.809a172.269 172.269 0 0 1 8.964 2.268 173.733 173.733 0 0 0-8.964-2.268zm20.709 6.082a176.302 176.302 0 0 1 2.972 1.098c-.988-.375-1.979-.741-2.972-1.098zm40.42 20.658a180.356 180.356 0 0 1 2.832 2.002c-.942-.67-1.88-1.35-2.832-2.002zm-25.4 3.297a160.583 160.583 0 0 1 .034.016 163.188 163.188 0 0 1 .012.008 163.188 163.188 0 0 0-.047-.024zm34.907 3.7a180.356 180.356 0 0 1 2.686 2.119c-.885-.723-1.789-1.416-2.686-2.12zm-14.082 9.302a163.188 163.188 0 0 1 .041.025l.02.016a164.884 164.884 0 0 0-.06-.04zm-191.568 5.576a97.482 97.482 0 0 0-1.443 8.692c.367-3.026.85-5.925 1.443-8.692zm202.254 3.02c2.84 2.471 5.63 5.016 8.318 7.699a166.416 166.416 0 0 0-8.318-7.7zm23.783.773a181.767 181.767 0 0 1 2.233 2.424 182.244 182.244 0 0 0-2.233-2.424zm64.117 3.801a52.304 52.304 0 0 1-3.258.148 51.695 51.695 0 0 1 3.258-.148zm-70.99 12.379c2.063 2.398 4.004 4.937 5.945 7.473a166.416 166.416 0 0 1 2.02 2.54 168.902 168.902 0 0 1 .039.057 168.902 168.902 0 0 0-8.004-10.07zm-67.053 65.43zm-204.125 33.052a164.145 164.145 0 0 0-.006.168v-.095a164.145 164.145 0 0 1 .006-.073zm1.024 16.754a165.595 165.595 0 0 0 .502 4.227 165.595 165.595 0 0 1-.004-.028c-.185-1.4-.35-2.799-.498-4.199z"/><path style="fill:#6e4a7e;stroke:none;stroke-width:1px;stroke-linecap:butt;stroke-linejoin:miter;stroke-opacity:1;fill-opacity:1" d="M158.668 95.738c-3.063 2.693-6 5.5-8.81 8.414a148.928 148.928 0 0 0-8.044 9.053 150.62 150.62 0 0 0-7.26 9.635 152.656 152.656 0 0 0-6.46 10.164 154.766 154.766 0 0 0-5.645 10.637 156.854 156.854 0 0 0-4.81 11.054 158.877 158.877 0 0 0-3.963 11.42 160.547 160.547 0 0 0-3.096 11.727 162.029 162.029 0 0 0-2.215 11.98 164.145 164.145 0 0 0-1.188 36.912 165.595 165.595 0 0 0 3.919 24.868 167.35 167.35 0 0 0 3.422 12.347 168.922 168.922 0 0 0 4.42 12.215 76.454 76.454 0 0 1 6.062-7.637 79.493 79.493 0 0 1 7.063-6.902 82.667 82.667 0 0 1 7.988-6.084 85.873 85.873 0 0 1 8.836-5.184 85.7 85.7 0 0 1 9.633-4.189 82.474 82.474 0 0 1 9.87-2.91 79.316 79.316 0 0 1 9.99-1.615 76.242 76.242 0 0 1 9.985-.309 424.017 424.017 0 0 1-6.242-13.945 404.94 404.94 0 0 1-5.62-13.895 380.473 380.473 0 0 1-4.976-13.771 351.804 351.804 0 0 1-4.31-13.588 319.655 319.655 0 0 1-3.625-13.334 285.534 285.534 0 0 1-2.918-13.018 250.447 250.447 0 0 1-2.19-12.633 215.737 215.737 0 0 1-1.44-12.181 178.129 178.129 0 0 1-.642-10.899 147.5 147.5 0 0 1 .065-10.187c.138-3.275.39-6.428.758-9.453.367-3.026.85-5.925 1.443-8.692z"/><path style="fill:#a764ce;stroke:none;stroke-width:1px;stroke-linecap:butt;stroke-linejoin:miter;stroke-opacity:1;fill-opacity:1" d="M201.06 72.81c-2.044-.11-3.995-.012-5.841.295-.924.154-1.82.362-2.69.622-.87.26-1.714.57-2.529.937-.286.144-.57.28-.855.426-.286.145-.563.295-.848.441a20.38 20.38 0 0 0-2.244 1.494 22.13 22.13 0 0 0-2.084 1.813c-1.335 1.313-2.56 2.834-3.672 4.553-1.113 1.718-2.114 3.635-3 5.74-.886 2.105-1.659 4.396-2.313 6.867a72.37 72.37 0 0 0-1.605 7.936 98.124 98.124 0 0 0-.883 8.945c-.172 3.143-.22 6.443-.142 9.892.077 3.45.279 7.048.61 10.784.338 3.797.8 7.682 1.386 11.642a236 236 0 0 0 2.119 12.1 270.656 270.656 0 0 0 2.832 12.49 304.722 304.722 0 0 0 3.525 12.817 336.923 336.923 0 0 0 4.197 13.08 365.832 365.832 0 0 0 4.848 13.275 390.67 390.67 0 0 0 5.48 13.406 410.315 410.315 0 0 0 6.088 13.473 120.1 120.1 0 0 1 4.704-5.442 129.492 129.492 0 0 1 5.127-5.279 138.88 138.88 0 0 1 5.53-5.096 147.685 147.685 0 0 1 5.915-4.894 155.605 155.605 0 0 1 6.271-4.674 162.717 162.717 0 0 1 6.612-4.433 168.682 168.682 0 0 1 6.925-4.176 173.475 173.475 0 0 1 7.221-3.895 174.101 174.101 0 0 1 7.397-3.553 168.662 168.662 0 0 1 7.447-3.15 162.66 162.66 0 0 1 7.473-2.74 155.677 155.677 0 0 1 7.468-2.328 147.633 147.633 0 0 1 7.436-1.907c2.47-.564 4.93-1.059 7.375-1.48 2.445-.421 4.875-.77 7.285-1.045 2.41-.275 4.8-.478 7.166-.605a410.39 410.39 0 0 0-7.32-12.846 390.632 390.632 0 0 0-7.627-12.313 365.919 365.919 0 0 0-7.89-11.726 336.805 336.805 0 0 0-8.114-11.082 304.696 304.696 0 0 0-8.297-10.385 270.757 270.757 0 0 0-8.441-9.635 235.983 235.983 0 0 0-8.543-8.826 201.915 201.915 0 0 0-8.606-7.965 163.223 163.223 0 0 0-8.361-6.832 128.649 128.649 0 0 0-8.09-5.697 98.09 98.09 0 0 0-7.754-4.543 72.422 72.422 0 0 0-7.365-3.367c-2.383-.924-4.69-1.646-6.914-2.166-2.224-.52-4.364-.838-6.408-.947z"/><path style="fill:#6e4a7e;stroke:none;stroke-width:1px;stroke-linecap:butt;stroke-linejoin:miter;stroke-opacity:1;fill-opacity:1" d="M259.861 58.992c-4.016-.09-8.04-.023-12.062.21-4.022.23-8.042.626-12.05 1.187a147.7 147.7 0 0 0-11.987 2.181 97.474 97.474 0 0 1 7.879 3.942 120.347 120.347 0 0 1 8.093 4.941 147.29 147.29 0 0 1 8.282 5.938 178.057 178.057 0 0 1 8.44 6.923 215.905 215.905 0 0 1 9.007 8.329 250.46 250.46 0 0 1 8.933 9.195 285.572 285.572 0 0 1 8.817 10.012 319.771 319.771 0 0 1 8.656 10.771 351.732 351.732 0 0 1 8.46 11.473 380.532 380.532 0 0 1 8.218 12.12 404.884 404.884 0 0 1 7.935 12.714 424.023 424.023 0 0 1 7.614 13.248 76.272 76.272 0 0 1 6.119-7.897 79.336 79.336 0 0 1 7.18-7.133 82.495 82.495 0 0 1 8.156-6.277 85.689 85.689 0 0 1 9.05-5.33 85.9 85.9 0 0 1 9.39-4.101 82.661 82.661 0 0 1 9.616-2.885 79.518 79.518 0 0 1 9.737-1.658 76.394 76.394 0 0 1 9.738-.416 168.902 168.902 0 0 0-15.262-20.782 166.416 166.416 0 0 0-17.814-17.787 164.884 164.884 0 0 0-19.934-14.642 163.188 163.188 0 0 0-21.62-11.344 160.583 160.583 0 0 0-11.31-4.387 158.822 158.822 0 0 0-11.566-3.506 156.86 156.86 0 0 0-11.771-2.605 154.79 154.79 0 0 0-11.924-1.686 152.633 152.633 0 0 0-12.02-.748z"/><path style="fill:#a764ce;stroke:none;stroke-width:1px;stroke-linecap:butt;stroke-linejoin:miter;stroke-opacity:1;fill-opacity:1" d="M310.582 43.443c-4.264.09-8.565.292-12.894.608-4.33.316-8.687.744-13.069 1.289a172.269 172.269 0 0 1 18.027 4.05 176.302 176.302 0 0 1 26.107 9.635 178.353 178.353 0 0 1 16.548 8.715 180.356 180.356 0 0 1 30.313 22.674 181.767 181.767 0 0 1 19.67 21.373 183.987 183.987 0 0 1 11.353 16.223 53 53 0 0 1 4.064-5.93 50.94 50.94 0 0 1 4.783-5.252 49.255 49.255 0 0 1 5.448-4.498 48.122 48.122 0 0 1 12.002-6.213 49.1 49.1 0 0 1 6.216-1.726c2.11-.44 4.252-.743 6.414-.91 2.163-.168 4.348-.2 6.54-.094a121.983 121.983 0 0 0-6.583-8.34c-2.31-2.68-4.736-5.26-7.271-7.738a129.576 129.576 0 0 0-7.924-7.131 135.584 135.584 0 0 0-8.539-6.522 142.818 142.818 0 0 0-9.119-5.9 151.229 151.229 0 0 0-9.662-5.277 160.59 160.59 0 0 0-10.168-4.647A170.76 170.76 0 0 0 382.2 53.82a181.588 181.588 0 0 0-11.07-3.369 192.772 192.772 0 0 0-11.465-2.72 204.236 204.236 0 0 0-11.824-2.069 215.712 215.712 0 0 0-12.147-1.406 227.008 227.008 0 0 0-12.431-.742 236.82 236.82 0 0 0-12.682-.07z"/><path style="fill:#a315ff;stroke:none;stroke-width:1px;stroke-linecap:butt;stroke-linejoin:miter;stroke-opacity:1;fill-opacity:1" d="m283.803 243.207-17.535-34.414a151.133 151.133 0 0 1 7.367-3.049 146.632 146.632 0 0 1 7.404-2.611c2.469-.797 4.936-1.52 7.393-2.166a130.74 130.74 0 0 1 7.33-1.705c2.427-.491 4.836-.905 7.218-1.237a108.12 108.12 0 0 1 7.06-.752 95.47 95.47 0 0 1 6.847-.257 83.14 83.14 0 0 1 6.59.248 7.997 7.997 0 0 0 4.886-1.202 8.006 8.006 0 0 0 3.209-3.879 53.421 53.421 0 0 1 2.229-4.949 56.75 56.75 0 0 1 2.74-4.76 60.03 60.03 0 0 1 3.22-4.538 62.878 62.878 0 0 1 3.667-4.282 65.143 65.143 0 0 1 4.078-3.986 66.734 66.734 0 0 1 4.457-3.656 67.876 67.876 0 0 1 15.27-8.627 67.645 67.645 0 0 1 11.066-3.406 65.167 65.167 0 0 1 5.623-.958 62.85 62.85 0 0 1 5.617-.449 60.008 60.008 0 0 1 5.565.063c1.84.107 3.664.301 5.462.582 1.8.28 3.574.649 5.315 1.105a8.052 8.052 0 0 0 6.227-.922 8.014 8.014 0 0 0 3.64-5.134c.312-1.44.688-2.84 1.125-4.198a41.15 41.15 0 0 1 1.494-3.941 38.467 38.467 0 0 1 1.846-3.666 36.317 36.317 0 0 1 2.187-3.371 34.688 34.688 0 0 1 2.514-3.057 33.592 33.592 0 0 1 2.824-2.722 33.086 33.086 0 0 1 6.528-4.368 33.228 33.228 0 0 1 11.232-3.398 34.701 34.701 0 0 1 3.951-.236 36.297 36.297 0 0 1 4.012.212c1.345.146 2.697.366 4.05.66 1.355.295 2.712.664 4.067 1.108 1.355.444 2.709.965 4.057 1.559a8.016 8.016 0 0 0 9.056-1.83 8.003 8.003 0 0 0 1.407-2.043 8.027 8.027 0 0 0-.09-7.104 138.287 138.287 0 0 0-9.192-15.46 139.045 139.045 0 0 0-11.07-14.07 141.28 141.28 0 0 0-6.213-6.497 144.304 144.304 0 0 0-6.646-6.125 148.29 148.29 0 0 0-7.07-5.748 153.104 153.104 0 0 0-7.483-5.362 158.707 158.707 0 0 0-7.88-4.966 166.19 166.19 0 0 0-8.272-4.565 172.704 172.704 0 0 0-8.65-4.156 180.785 180.785 0 0 0-9.014-3.74 189.692 189.692 0 0 0-9.368-3.313 199.477 199.477 0 0 0-9.71-2.88 210.008 210.008 0 0 0-10.044-2.442 221.105 221.105 0 0 0-10.359-1.992 229.48 229.48 0 0 0-9.978-1.45 236.468 236.468 0 0 0-10.1-1.021c-3.385-.27-6.785-.468-10.203-.596a250.892 250.892 0 0 0-10.297-.174 258.18 258.18 0 0 0-10.373.247c-3.47.151-6.95.373-10.438.664-3.487.29-6.981.651-10.482 1.08a279.81 279.81 0 0 0-10.518 1.492c-3.51.565-7.023 1.199-10.537 1.9a293.108 293.108 0 0 0-10.539 2.309 299.452 299.452 0 0 0-10.531 2.713 310.61 310.61 0 0 0-31.38 10.541 320.13 320.13 0 0 0-20.602 9.002l-8.057-15.81a7.999 7.999 0 0 0-4.666-3.987 7.993 7.993 0 0 0-6.117.482 7.987 7.987 0 0 0-3.985 4.666 8 8 0 0 0 .482 6.117l8.057 15.813a320.175 320.175 0 0 0-19.395 11.375 315.606 315.606 0 0 0-9.282 6.123c-2.416 1.655-4.777 3.364-7.131 5.076l-31.86 78.78-9.035 56.68 20.53 79.472c.967-.027 1.935-.172 2.847-.549a8.056 8.056 0 0 0 2.66-1.797 8.014 8.014 0 0 0 1.747-2.697 53.422 53.422 0 0 1 2.228-4.95c.83-1.62 1.747-3.21 2.742-4.761a60.003 60.003 0 0 1 3.219-4.54 62.85 62.85 0 0 1 3.666-4.278 65.146 65.146 0 0 1 4.078-3.987 67.63 67.63 0 0 1 19.727-12.283 67.666 67.666 0 0 1 11.066-3.408 65.16 65.16 0 0 1 5.623-.955 62.856 62.856 0 0 1 5.617-.451 60.009 60.009 0 0 1 5.565.064c1.84.107 3.664.3 5.463.58 1.798.28 3.573.649 5.314 1.106a8.011 8.011 0 0 0 8.87-3.565 83.143 83.143 0 0 1 3.67-5.474 95.64 95.64 0 0 1 4.234-5.39c1.5-1.777 3.088-3.536 4.757-5.269a119.99 119.99 0 0 1 5.243-5.113 130.782 130.782 0 0 1 5.689-4.928 139.791 139.791 0 0 1 6.098-4.707 146.623 146.623 0 0 1 6.464-4.455 151.056 151.056 0 0 1 6.795-4.168l17.6 34.541 14.22-7.408zm26.779-199.764a238.93 238.93 0 0 1 12.682.07c4.187.136 8.333.384 12.431.743 4.099.358 8.15.827 12.147 1.406 3.997.58 7.94 1.27 11.824 2.068 3.884.799 7.707 1.706 11.465 2.721a181.588 181.588 0 0 1 11.07 3.37 170.76 170.76 0 0 1 10.637 4.011 160.59 160.59 0 0 1 10.168 4.647 151.229 151.229 0 0 1 9.662 5.277 142.818 142.818 0 0 1 9.12 5.9 135.584 135.584 0 0 1 8.538 6.522 129.576 129.576 0 0 1 7.924 7.13 125.017 125.017 0 0 1 7.271 7.739c2.311 2.68 4.508 5.46 6.583 8.34a52.288 52.288 0 0 0-6.54.093 50.807 50.807 0 0 0-6.414.91 49.1 49.1 0 0 0-6.216 1.727 48.122 48.122 0 0 0-12.002 6.213 49.255 49.255 0 0 0-5.448 4.498 50.94 50.94 0 0 0-4.783 5.252 53 53 0 0 0-4.064 5.93 183.987 183.987 0 0 0-24.14-30.877 181.767 181.767 0 0 0-21.522-18.912 180.356 180.356 0 0 0-23.848-15.063 178.353 178.353 0 0 0-16.924-7.81 176.302 176.302 0 0 0-17.557-5.957 173.733 173.733 0 0 0-18.027-4.051c4.382-.545 8.74-.973 13.068-1.29 4.33-.315 8.63-.518 12.895-.607zm-50.72 15.55c4.016.09 8.025.34 12.019.747 3.993.407 7.972.97 11.924 1.686a156.86 156.86 0 0 1 11.771 2.605c3.893 1.02 7.751 2.19 11.567 3.506a160.583 160.583 0 0 1 22.302 9.639 163.188 163.188 0 0 1 20.832 13.011 164.884 164.884 0 0 1 18.928 16.233 166.416 166.416 0 0 1 16.592 19.305 168.902 168.902 0 0 1 7.285 10.754c-3.235-.07-6.486.07-9.738.416s-6.505.9-9.737 1.658a82.661 82.661 0 0 0-9.617 2.885 85.9 85.9 0 0 0-9.388 4.101 85.689 85.689 0 0 0-9.051 5.33 82.495 82.495 0 0 0-8.156 6.277 79.336 79.336 0 0 0-7.18 7.133 76.272 76.272 0 0 0-6.12 7.897 422.032 422.032 0 0 0-7.613-13.248 404.884 404.884 0 0 0-7.935-12.713 380.532 380.532 0 0 0-8.219-12.121 351.732 351.732 0 0 0-8.459-11.473 319.771 319.771 0 0 0-8.656-10.771 285.572 285.572 0 0 0-8.817-10.012 250.46 250.46 0 0 0-8.933-9.195 215.905 215.905 0 0 0-9.008-8.329 178.057 178.057 0 0 0-8.44-6.923 147.29 147.29 0 0 0-8.28-5.938 120.65 120.65 0 0 0-8.094-4.941 97.474 97.474 0 0 0-7.88-3.942 147.7 147.7 0 0 1 11.987-2.181 149.288 149.288 0 0 1 24.113-1.397zM201.06 72.81c2.044.11 4.184.427 6.408.947 2.223.52 4.53 1.242 6.914 2.166a72.422 72.422 0 0 1 7.365 3.367 98.09 98.09 0 0 1 7.754 4.543 128.649 128.649 0 0 1 8.09 5.697 163.223 163.223 0 0 1 8.361 6.832 201.915 201.915 0 0 1 8.606 7.965c2.86 2.802 5.71 5.747 8.543 8.826 2.832 3.08 5.65 6.296 8.441 9.635 2.792 3.34 5.56 6.804 8.297 10.385a336.805 336.805 0 0 1 8.113 11.082 365.919 365.919 0 0 1 7.89 11.726 390.632 390.632 0 0 1 7.628 12.313 410.39 410.39 0 0 1 7.32 12.846c-2.366.127-4.756.33-7.166.605-2.41.276-4.84.624-7.285 1.045-2.445.421-4.905.916-7.375 1.48-2.47.565-4.95 1.2-7.436 1.907a155.677 155.677 0 0 0-7.468 2.328 162.66 162.66 0 0 0-7.473 2.74 168.662 168.662 0 0 0-7.447 3.15 173.551 173.551 0 0 0-7.397 3.553 173.475 173.475 0 0 0-7.22 3.895 168.682 168.682 0 0 0-6.926 4.176 162.717 162.717 0 0 0-6.612 4.433 155.605 155.605 0 0 0-6.271 4.674 147.685 147.685 0 0 0-5.914 4.894 138.88 138.88 0 0 0-5.531 5.096 129.614 129.614 0 0 0-5.127 5.28 120.1 120.1 0 0 0-4.704 5.44 410.315 410.315 0 0 1-6.087-13.472 390.67 390.67 0 0 1-5.48-13.406 365.832 365.832 0 0 1-4.849-13.275 336.923 336.923 0 0 1-4.197-13.08 304.722 304.722 0 0 1-3.525-12.817 270.656 270.656 0 0 1-2.832-12.49 236 236 0 0 1-2.12-12.1 201.887 201.887 0 0 1-1.384-11.642 163.272 163.272 0 0 1-.611-10.784c-.078-3.449-.03-6.75.142-9.892a97.94 97.94 0 0 1 .883-8.945 72.37 72.37 0 0 1 1.605-7.936c.654-2.47 1.427-4.762 2.313-6.867.886-2.105 1.887-4.022 3-5.74 1.113-1.72 2.337-3.24 3.672-4.553a22.13 22.13 0 0 1 2.084-1.813c.721-.55 1.469-1.05 2.244-1.494.285-.146.562-.296.848-.441.285-.145.57-.282.855-.426.815-.366 1.66-.678 2.53-.937.87-.26 1.765-.468 2.689-.622 1.846-.307 3.797-.404 5.842-.294zm-42.393 22.927a97.482 97.482 0 0 0-1.443 8.692 120.28 120.28 0 0 0-.758 9.453 147.5 147.5 0 0 0-.065 10.187c.096 3.516.31 7.15.643 10.899.353 3.978.833 8.042 1.44 12.181.606 4.14 1.336 8.355 2.189 12.633a285.534 285.534 0 0 0 2.918 13.018 319.655 319.655 0 0 0 3.625 13.334 351.804 351.804 0 0 0 4.31 13.588 380.473 380.473 0 0 0 4.977 13.771 404.94 404.94 0 0 0 5.62 13.895 424.017 424.017 0 0 0 6.241 13.945 76.242 76.242 0 0 0-9.984.309c-3.336.32-6.673.86-9.99 1.615a82.474 82.474 0 0 0-9.871 2.91 85.7 85.7 0 0 0-9.633 4.19 85.873 85.873 0 0 0-8.836 5.183 82.667 82.667 0 0 0-7.988 6.084 79.493 79.493 0 0 0-7.063 6.902 76.454 76.454 0 0 0-6.063 7.637 168.922 168.922 0 0 1-4.42-12.215 167.487 167.487 0 0 1-3.421-12.347 165.595 165.595 0 0 1-4.45-37.28 164.145 164.145 0 0 1 1.72-24.5c.589-4.03 1.328-8.026 2.214-11.98a160.547 160.547 0 0 1 3.096-11.727c1.177-3.86 2.5-7.671 3.963-11.42a156.854 156.854 0 0 1 4.81-11.054 154.766 154.766 0 0 1 5.645-10.637 152.656 152.656 0 0 1 6.46-10.164 150.62 150.62 0 0 1 7.26-9.635 148.928 148.928 0 0 1 8.043-9.053 147.688 147.688 0 0 1 8.811-8.414z"/><path style="fill:#a764ce;stroke:none;stroke-width:1px;stroke-linecap:butt;stroke-linejoin:miter;stroke-opacity:1;fill-opacity:1" d="M108.957 134.844a258.35 258.35 0 0 0-8.725 9.814 248.53 248.53 0 0 0-8.07 10.074 238.006 238.006 0 0 0-7.396 10.301 227.027 227.027 0 0 0-6.707 10.494 215.744 215.744 0 0 0-6.002 10.655 205.195 205.195 0 0 0-5.278 10.78 192.774 192.774 0 0 0-4.537 10.876 181.565 181.565 0 0 0-3.781 10.935 170.744 170.744 0 0 0-3.006 10.963 160.58 160.58 0 0 0-2.217 10.957 151.267 151.267 0 0 0-1.41 10.92c-.333 3.63-.53 7.246-.586 10.846-.056 3.6.027 7.181.254 10.74.227 3.56.598 7.096 1.113 10.604a125.036 125.036 0 0 0 1.987 10.431 121.97 121.97 0 0 0 2.877 10.227 52.255 52.255 0 0 1 3.918-5.236 50.508 50.508 0 0 1 4.507-4.653 49.103 49.103 0 0 1 5.051-4.015 48.13 48.13 0 0 1 12.082-6.059 49.256 49.256 0 0 1 6.842-1.762 50.938 50.938 0 0 1 7.06-.78 52.97 52.97 0 0 1 7.184.194 185.194 185.194 0 0 1-6.451-18.72 183.043 183.043 0 0 1-4.338-18.96 181.777 181.777 0 0 1-2.65-28.527 180.322 180.322 0 0 1 .734-18.84 179.146 179.146 0 0 1 2.676-18.51 177.369 177.369 0 0 1 4.57-18.013 175.066 175.066 0 0 1 6.416-17.355 172.283 172.283 0 0 1 3.883-8.381z"/><path style="fill:#a315ff;stroke:none;stroke-width:1px;stroke-linecap:butt;stroke-linejoin:miter;stroke-opacity:1;fill-opacity:1" d="M59.354 332.84c.505-.127 1.025-.218 1.488-.436a8.032 8.032 0 0 0 4.426-5.558 44.25 44.25 0 0 1 1.123-4.196 41.148 41.148 0 0 1 1.494-3.941 38.479 38.479 0 0 1 1.847-3.666 36.316 36.316 0 0 1 2.188-3.371 34.667 34.667 0 0 1 2.512-3.057 33.115 33.115 0 0 1 9.352-7.09 33.227 33.227 0 0 1 11.232-3.398 34.701 34.701 0 0 1 3.95-.236 36.295 36.295 0 0 1 4.013.21 38.87 38.87 0 0 1 4.052.66c1.354.296 2.71.666 4.065 1.11.772.253 1.54.585 2.31.887.99-5.97 1.54-10.069 1.54-10.069s-24.052-75.751-14.633-91.214c9.418-15.464 26.76-93.207 26.76-93.207S11.406 186.007 53.308 315.789a314.07 314.07 0 0 0 6.045 17.05zm49.603-197.996a173.755 173.755 0 0 0-10.299 25.736 176.354 176.354 0 0 0-4.57 18.014 178.351 178.351 0 0 0-2.676 18.51 179.771 179.771 0 0 0-.734 18.84 180.836 180.836 0 0 0 2.65 28.527 182.403 182.403 0 0 0 4.338 18.959 185.194 185.194 0 0 0 6.451 18.72 52.97 52.97 0 0 0-7.183-.195c-2.38.098-4.739.357-7.061.781a49.256 49.256 0 0 0-6.842 1.762 48.13 48.13 0 0 0-12.082 6.059 49.103 49.103 0 0 0-5.05 4.015 50.508 50.508 0 0 0-4.508 4.653 52.255 52.255 0 0 0-3.918 5.236 121.97 121.97 0 0 1-2.877-10.227 125.09 125.09 0 0 1-1.987-10.431 129.624 129.624 0 0 1-1.113-10.604c-.227-3.559-.31-7.14-.254-10.74.056-3.6.253-7.216.586-10.846a151.78 151.78 0 0 1 1.41-10.92 160.58 160.58 0 0 1 2.217-10.957 170.744 170.744 0 0 1 3.006-10.963 181.565 181.565 0 0 1 3.781-10.935c1.388-3.637 2.9-7.264 4.537-10.875a204.235 204.235 0 0 1 5.278-10.781 215.744 215.744 0 0 1 6.002-10.655 227.027 227.027 0 0 1 6.707-10.494 238.006 238.006 0 0 1 7.396-10.3 248.53 248.53 0 0 1 8.07-10.075 258.35 258.35 0 0 1 8.725-9.814z"/><path d="M424.029 77.319c-43.076-31.909-99.635-50.076-160.012-51.556V8.017a8.017 8.017 0 0 0-16.034 0v17.747c-60.378 1.48-116.936 19.647-160.012 51.556-45.701 33.852-70.869 79.087-70.869 127.374a8.02 8.02 0 0 0 5.325 7.552 8.02 8.02 0 0 0 8.902-2.482c7.451-9.128 17.394-14.155 27.994-14.155 10.6 0 20.543 5.027 27.994 14.155a8.019 8.019 0 0 0 5.576 2.922 8.047 8.047 0 0 0 5.967-2.005c10.751-9.578 25.95-15.071 41.699-15.071 15.749 0 30.948 5.493 41.699 15.071a8.016 8.016 0 0 0 9.52.85c14.693-8.999 34.838-14.573 56.206-15.699v278.223c0 20.924 17.022 37.946 37.946 37.946s37.946-17.022 37.946-37.946v-21.378a8.017 8.017 0 0 0-16.034 0v21.378c0 12.083-9.83 21.912-21.912 21.912-12.082 0-21.912-9.83-21.912-21.912V195.83c21.367 1.126 41.512 6.7 56.206 15.699a8.015 8.015 0 0 0 9.52-.85c10.751-9.578 25.95-15.071 41.699-15.071 15.749 0 30.948 5.493 41.699 15.071a8.015 8.015 0 0 0 11.543-.917c7.451-9.128 17.393-14.155 27.994-14.155 10.601 0 20.543 5.027 27.994 14.155a8.015 8.015 0 0 0 14.226-5.07c-.001-48.285-25.169-93.521-70.87-127.373zM86.237 187.578c-8.158-5.183-17.427-8.004-26.914-8.004-8.666 0-17.154 2.349-24.775 6.706 8.668-56.118 56.456-103.694 122.877-127.756-39.543 29.359-66.613 75.875-71.188 129.054Zm93.595 1.88c-11.601-6.433-25.098-9.884-39.272-9.884-13.819 0-26.998 3.274-38.401 9.398 5.979-69.571 54.092-126.59 117.312-142.723-7.141 8.783-13.637 20.254-19.257 34.216-11.933 29.642-19.048 67.917-20.382 108.993zM256 179.574c-22.027 0-42.914 4.148-60.241 11.831 1.148-39.775 7.893-76.676 19.282-104.972 11.202-27.832 25.731-44.043 40.003-44.737.32-.001.636-.009.956-.009.32 0 .636.008.956.009 14.272.695 28.801 16.906 40.003 44.737 11.389 28.296 18.134 65.198 19.282 104.972-17.327-7.683-38.214-11.831-60.241-11.831Zm115.44 0c-14.175 0-27.672 3.451-39.273 9.883-1.334-41.076-8.45-79.35-20.382-108.993-5.62-13.962-12.116-25.433-19.257-34.216 63.22 16.133 111.333 73.152 117.312 142.723-11.401-6.123-24.581-9.397-38.4-9.397zm81.236 0c-9.485 0-18.756 2.821-26.914 8.004-4.575-53.179-31.645-99.695-71.188-129.054 66.421 24.062 114.21 71.638 122.877 127.756-7.621-4.356-16.109-6.706-24.775-6.706z" style="stroke:none;stroke-opacity:1;fill:#020004;fill-opacity:1" transform="rotate(-27 292.14 197.624)"/></svg>