<svg viewBox="0 0 26.458 26.458" xmlns:xlink="http://www.w3.org/1999/xlink" xmlns="http://www.w3.org/2000/svg"><defs><linearGradient id="a"><stop style="stop-color:#000042;stop-opacity:1" offset="0"/><stop style="stop-color:#130d73;stop-opacity:1" offset="1"/></linearGradient><linearGradient xlink:href="#a" id="b" x1="23.89" y1="2.817" x2="5.808" y2="21.405" gradientUnits="userSpaceOnUse"/></defs><g style="font-size:26.4583px;line-height:1.25;stroke-width:.264583"><path d="M24.275 3.73q1.773.636 1.773 1.694 0 .344-.317 1.296l-5.08 14.685q-.053.185-.186.45-.132.264-.714.714-.556.423-1.35.423-.767 0-1.349-.423-.555-.45-.74-.873l-3.096-9.128-2.99 8.837q-.053.159-.238.45-.185.29-.423.529-.609.608-1.456.608-.846 0-1.402-.397-.529-.396-.714-.793l-.185-.397L.7 6.72Q.41 5.847.41 5.424q0-1.058 1.772-1.667.767-.264 1.376-.264.635 0 .952.423.344.423.609 1.296l2.91 8.837 2.884-8.704q.37-1.112 1.35-1.535.423-.185 1.084-.185.688 0 1.27.45.582.423.741.846l3.043 9.181 2.91-8.89q.212-.608.344-.9.132-.29.476-.555.37-.29.9-.29t1.243.264z" style="fill:url(#b);fill-opacity:1;fill-rule:nonzero;stroke:none" aria-label="W" transform="matrix(.77353 0 0 .77353 2.996 2.996)"/></g></svg>