<svg xmlns="http://www.w3.org/2000/svg" xmlns:xlink="http://www.w3.org/1999/xlink" viewBox="0 0 256 256" height="256" width="256"><defs><linearGradient id="a"><stop offset="0" stop-color="#4150be"/><stop offset="1" stop-color="#00002f"/></linearGradient><linearGradient gradientUnits="userSpaceOnUse" y2="973.921" x2="127.452" y1="888.502" x1="127.022" id="b" xlink:href="#a"/></defs><g fill="url(#b)" transform="translate(0 -796.362)"><path d="M89.545 958.186q-3.488 2.43-9.196 3.488-5.708 1.162-11.733 1.162-7.081 0-13.635-2.113-6.447-2.114-11.52-6.765-4.969-4.65-7.928-11.944-2.96-7.293-2.96-17.652 0-10.781 3.383-18.074 3.382-7.4 8.667-11.839 5.285-4.545 11.732-6.553 6.448-2.008 12.684-2.008 6.87 0 11.521.845 4.757.846 7.822 2.009l-3.065 13.106q-2.643-1.162-6.236-1.69-3.489-.53-8.88-.53-4.756 0-8.666 1.586-3.806 1.48-6.554 4.545t-4.333 7.716q-1.48 4.651-1.48 10.887 0 5.497 1.374 10.042t4.122 7.821q2.748 3.277 6.976 5.074 4.228 1.797 9.83 1.797 5.18 0 8.668-.952 3.593-.95 6.341-2.43l3.066 12.472zM134.088 941.063q0-3.277-2.748-5.18-2.748-1.902-6.87-3.488-4.017-1.585-8.773-3.17-4.757-1.586-8.879-4.229-4.016-2.642-6.765-6.659-2.748-4.016-2.748-10.464 0-5.496 1.903-9.618 2.008-4.228 5.496-6.87 3.594-2.749 8.562-4.123 5.073-1.374 11.098-1.374 6.976 0 13.212 1.268 6.342 1.163 10.359 3.383l-4.968 13.106q-1.268-.74-3.277-1.48-1.902-.845-4.439-1.374-2.537-.634-5.39-.95-2.854-.424-5.814-.424-5.285 0-8.244 1.903-2.854 1.797-2.854 5.073 0 3.277 2.748 5.285 2.748 1.903 6.765 3.594 4.122 1.586 8.878 3.277 4.757 1.585 8.773 4.228 4.122 2.536 6.87 6.447 2.749 3.911 2.749 10.042 0 6.13-2.114 10.57-2.114 4.439-6.025 7.398-3.805 2.854-9.196 4.228-5.39 1.374-11.838 1.374-4.334 0-8.245-.528-3.805-.423-7.081-1.057-3.277-.74-5.814-1.48-2.43-.845-3.91-1.585l5.179-13.213q1.162.635 3.17 1.374 2.115.74 4.651 1.48 2.537.634 5.391 1.057 2.96.423 5.92.423 6.975 0 10.569-2.008 3.7-2.009 3.7-6.236zM186.538 930.07l2.114 12.578h.528l2.326-12.684 15.432-42.596h16.489l-29.913 74.517H182.31l-30.124-74.517h18.18l16.172 42.702z"/></g></svg>