<svg xmlns="http://www.w3.org/2000/svg" xmlns:xlink="http://www.w3.org/1999/xlink" width="256" height="256" viewBox="0 0 256 256"><defs><linearGradient id="a"><stop offset="0" stop-color="#000075"/><stop offset=".269" stop-color="#6f207a"/><stop offset=".755" stop-color="#c40000"/><stop offset="1" stop-color="#ffff8a"/></linearGradient><linearGradient xlink:href="#a" id="b" x1="25.657" y1="-17.994" x2="144.387" y2="135.458" gradientUnits="userSpaceOnUse"/><linearGradient xlink:href="#a" id="c" gradientUnits="userSpaceOnUse" x1="25.657" y1="-17.994" x2="144.387" y2="135.458"/><linearGradient xlink:href="#a" id="d" gradientUnits="userSpaceOnUse" x1="25.657" y1="-17.994" x2="144.387" y2="135.458"/><linearGradient xlink:href="#a" id="e" gradientUnits="userSpaceOnUse" x1="25.657" y1="-17.994" x2="144.387" y2="135.458"/><linearGradient xlink:href="#a" id="f" gradientUnits="userSpaceOnUse" x1="25.657" y1="-17.994" x2="144.387" y2="135.458"/><linearGradient xlink:href="#a" id="g" gradientUnits="userSpaceOnUse" x1="25.657" y1="-17.994" x2="144.387" y2="135.458"/><linearGradient xlink:href="#a" id="h" gradientUnits="userSpaceOnUse" x1="25.657" y1="-17.994" x2="144.387" y2="135.458"/><linearGradient xlink:href="#a" id="i" gradientUnits="userSpaceOnUse" x1="25.657" y1="-17.994" x2="144.387" y2="135.458"/><linearGradient xlink:href="#a" id="j" gradientUnits="userSpaceOnUse" x1="25.657" y1="-17.994" x2="144.387" y2="135.458"/><linearGradient xlink:href="#a" id="k" gradientUnits="userSpaceOnUse" x1="25.657" y1="-17.994" x2="144.387" y2="135.458"/><linearGradient xlink:href="#a" id="l" gradientUnits="userSpaceOnUse" x1="25.657" y1="-17.994" x2="144.387" y2="135.458"/><linearGradient xlink:href="#a" id="m" gradientUnits="userSpaceOnUse" x1="25.657" y1="-17.994" x2="144.387" y2="135.458"/><linearGradient xlink:href="#a" id="n" gradientUnits="userSpaceOnUse" x1="25.657" y1="-17.994" x2="144.387" y2="135.458"/><linearGradient xlink:href="#a" id="o" gradientUnits="userSpaceOnUse" x1="25.657" y1="-17.994" x2="144.387" y2="135.458"/><linearGradient xlink:href="#a" id="p" gradientUnits="userSpaceOnUse" x1="25.657" y1="-17.994" x2="144.387" y2="135.458"/><linearGradient xlink:href="#a" id="q" gradientUnits="userSpaceOnUse" x1="25.657" y1="-17.994" x2="144.387" y2="135.458"/><linearGradient xlink:href="#a" id="r" gradientUnits="userSpaceOnUse" x1="25.657" y1="-17.994" x2="144.387" y2="135.458"/><linearGradient xlink:href="#a" id="s" gradientUnits="userSpaceOnUse" x1="25.657" y1="-17.994" x2="144.387" y2="135.458"/><linearGradient xlink:href="#a" id="t" gradientUnits="userSpaceOnUse" x1="25.657" y1="-17.994" x2="144.387" y2="135.458"/><linearGradient xlink:href="#a" id="u" gradientUnits="userSpaceOnUse" x1="25.657" y1="-17.994" x2="144.387" y2="135.458"/><linearGradient xlink:href="#a" id="v" gradientUnits="userSpaceOnUse" x1="25.657" y1="-17.994" x2="144.387" y2="135.458"/><linearGradient xlink:href="#a" id="w" gradientUnits="userSpaceOnUse" x1="25.657" y1="-17.994" x2="144.387" y2="135.458"/><linearGradient xlink:href="#a" id="x" gradientUnits="userSpaceOnUse" x1="25.657" y1="-17.994" x2="144.387" y2="135.458"/><linearGradient xlink:href="#a" id="y" gradientUnits="userSpaceOnUse" x1="25.657" y1="-17.994" x2="144.387" y2="135.458"/><linearGradient xlink:href="#a" id="z" gradientUnits="userSpaceOnUse" x1="25.657" y1="-17.994" x2="144.387" y2="135.458"/><linearGradient xlink:href="#a" id="A" gradientUnits="userSpaceOnUse" x1="25.657" y1="-17.994" x2="144.387" y2="135.458"/></defs><g transform="translate(-.413 -.413) scale(1.0039)" fill="url(#b)" color="#000"><path transform="scale(.9634 1.03531) rotate(45)" style="isolation:auto;mix-blend-mode:normal" overflow="visible" fill="url(#c)" d="M78.831-76.527h16.311v16.311H78.831z"/><path transform="scale(.9634 1.03531) rotate(45)" style="isolation:auto;mix-blend-mode:normal" overflow="visible" fill="url(#d)" d="M204.782-76.527h16.311v16.311h-16.311z"/><path transform="scale(.9634 1.03531) rotate(45)" style="isolation:auto;mix-blend-mode:normal" overflow="visible" fill="url(#e)" d="M78.831 49.424h16.311v16.311H78.831z"/><path transform="scale(.9634 1.03531) rotate(45)" style="isolation:auto;mix-blend-mode:normal" overflow="visible" fill="url(#f)" d="M204.782 49.424h16.311v16.311h-16.311z"/><path transform="scale(.9634 1.03531) rotate(45)" style="isolation:auto;mix-blend-mode:normal" overflow="visible" fill="url(#g)" d="M130.467-24.891h38.991V14.1h-38.991z"/><path transform="scale(.9634 1.03531) rotate(45)" style="isolation:auto;mix-blend-mode:normal" overflow="visible" fill="url(#h)" d="M141.621 43.412h22.523v22.523h-22.523z"/><path transform="scale(.9634 1.03531) rotate(45)" style="isolation:auto;mix-blend-mode:normal" overflow="visible" fill="url(#i)" d="M198.493-13.46h22.523V9.063h-22.523z"/><path transform="scale(.9634 1.03531) rotate(45)" style="isolation:auto;mix-blend-mode:normal" overflow="visible" fill="url(#j)" d="M135.876-76.077h22.523v22.523h-22.523z"/><path transform="scale(.9634 1.03531) rotate(45)" style="isolation:auto;mix-blend-mode:normal" overflow="visible" fill="url(#k)" d="M79.004-19.204h22.523V3.319H79.004z"/><path transform="scale(.9634 1.03531) rotate(45)" style="isolation:auto;mix-blend-mode:normal" overflow="visible" fill="url(#l)" d="M89.894-42.715h9.099v9.099h-9.099z"/><path transform="scale(.9634 1.03531) rotate(45)" style="isolation:auto;mix-blend-mode:normal" overflow="visible" fill="url(#m)" d="M112.548-65.369h9.099v9.099h-9.099z"/><path transform="scale(.9634 1.03531) rotate(45)" style="isolation:auto;mix-blend-mode:normal" overflow="visible" fill="url(#n)" d="M177.666 45.057h9.099v9.099h-9.099z"/><path transform="scale(.9634 1.03531) rotate(45)" style="isolation:auto;mix-blend-mode:normal" overflow="visible" fill="url(#o)" d="M200.32 22.403h9.099v9.099h-9.099z"/><path transform="scale(.9634 1.03531) rotate(45)" style="isolation:auto;mix-blend-mode:normal" overflow="visible" fill="url(#p)" d="M184.076-64.64h9.099v9.099h-9.099z"/><path transform="scale(.9634 1.03531) rotate(45)" style="isolation:auto;mix-blend-mode:normal" overflow="visible" fill="url(#q)" d="M202.386-46.329h9.099v9.099h-9.099z"/><path transform="scale(.9634 1.03531) rotate(45)" style="isolation:auto;mix-blend-mode:normal" overflow="visible" fill="url(#r)" d="M91.386 28.05h9.099v9.099h-9.099z"/><path transform="scale(.9634 1.03531) rotate(45)" style="isolation:auto;mix-blend-mode:normal" overflow="visible" fill="url(#s)" d="M109.697 46.36h9.099v9.099h-9.099z"/><path transform="scale(.9634 1.03531) rotate(45)" style="isolation:auto;mix-blend-mode:normal" overflow="visible" fill="url(#t)" d="M111.047-44.311h15.586v15.586h-15.586z"/><path transform="scale(.9634 1.03531) rotate(45)" style="isolation:auto;mix-blend-mode:normal" overflow="visible" fill="url(#u)" d="M173.664 18.306h15.586v15.586h-15.586z"/><path transform="scale(.9634 1.03531) rotate(45)" style="isolation:auto;mix-blend-mode:normal" overflow="visible" fill="url(#v)" d="M174.842-45.862h15.586v15.586h-15.586z"/><path transform="scale(.9634 1.03531) rotate(45)" style="isolation:auto;mix-blend-mode:normal" overflow="visible" fill="url(#w)" d="M110.173 18.807h15.586v15.586h-15.586z"/><path transform="scale(.9634 1.03531) rotate(45)" style="isolation:auto;mix-blend-mode:normal" overflow="visible" fill="url(#x)" d="M149.86-44.338h6.517v6.517h-6.517z"/><path transform="scale(.9634 1.03531) rotate(45)" style="isolation:auto;mix-blend-mode:normal" overflow="visible" fill="url(#y)" d="M180.322-13.876h6.517v6.517h-6.517z"/><path transform="scale(.9634 1.03531) rotate(45)" style="isolation:auto;mix-blend-mode:normal" overflow="visible" fill="url(#z)" d="M109.855-4.333h6.517v6.517h-6.517z"/><path transform="scale(.9634 1.03531) rotate(45)" style="isolation:auto;mix-blend-mode:normal" overflow="visible" fill="url(#A)" d="M140.317 26.129h6.517v6.517h-6.517z"/></g></svg>